{
.appVersion = "1075";
copyright = "Copyright 2017 Google Inc. All Rights Reserved.";
customParameters = (
{
name = glyphOrder;
value = (
.notdef,
NULL,
CR,
space,
uni00A0,
uniAAE0,
uniAAE1,
uniAAE2,
uniAAE3,
uniAAE4,
uniAAE5,
uniAAE6,
uniAAE7,
uniAAE8,
uniAAE9,
uniAAEA,
uniAAEB,
uniAAEC,
uniAAED,
uniAAEE,
uniAAEF,
uniAAF0,
uniAAF1,
uniAAF2,
uniAAF3,
uniAAF4,
uniAAF5,
uniAAF6,
uniABC0,
uniABC1,
uniABC2,
uniABC3,
uniABC4,
uniABC5,
uniABC6,
uniABC7,
uniABC8,
uniABC9,
uniABCA,
uniABCB,
uniABCC,
uniABCD,
uniABCE,
uniABCF,
uniABD0,
uniABD1,
uniABD2,
uniABD3,
uniABD4,
uniABD5,
uniABD6,
uniABD7,
uniABD8,
uniABD9,
uniABDA,
uniABDB,
uniABDC,
uniABDD,
uniABDE,
uniABDF,
uniABE0,
uniABE1,
uniABE2,
uniABE3,
uniABE4,
uniABE5,
uniABE6,
uniABE7,
uniABE8,
uniABE9,
uniABEA,
uniABEB,
uniABEC,
uniABED,
uniABF0,
uniABF1,
uniABF2,
uniABF3,
uniABF4,
uniABF5,
uniABF6,
uniABF7,
uniABF8,
uniABF9,
uniABED.alt1,
uniABED.alt2,
uniABED.alt3,
uniABED.alt4,
uniABED.alt5,
uniABED.alt6,
uniABED.alt7,
uniABED.alt8,
uni200B,
uni200C,
uni200D,
uni25CC
);
},
{
name = description;
value = "Designed by Monotype design team.";
},
{
name = license;
value = "This Font Software is licensed under the SIL Open Font License, Version 1.1. This Font Software is distributed on an \"AS IS\" BASIS, WITHOUT WARRANTIES OR CONDITIONS OF ANY KIND, either express or implied. See the SIL Open Font License for the specific language, permissions and limitations governing your use of this Font Software.";
},
{
name = licenseURL;
value = "http://scripts.sil.org/OFL";
},
{
name = vendorID;
value = GOOG;
},
{
name = unicodeRanges;
value = (
0,
1,
31,
45
);
},
{
name = trademark;
value = "Noto is a trademark of Google Inc.";
},
{
name = "Has WWS Names";
value = 1;
},
{
name = versionString;
value = "Version 2.000";
},
{
name = fsType;
value = (
);
},
{
name = codePageRanges;
value = (
1252
);
}
);
date = "2017-09-18 18:14:28 +0000";
designer = "Monotype Design Team";
designerURL = "http://www.monotype.com/studio";

glyphs = (
{
glyphname = .notdef;
lastChange = "2017-12-08 18:54:54 +0000";
layers = (
{
layerId = UUID0;
paths = (
{
closed = 1;
nodes = (
"505 0 LINE",
"505 714 LINE",
"94 714 LINE",
"94 0 LINE"
);
},
{
closed = 1;
nodes = (
"145 663 LINE",
"454 663 LINE",
"454 51 LINE",
"145 51 LINE"
);
}
);
width = 600;
}
);
},
{
glyphname = uniAAE0;
lastChange = "2017-12-08 18:54:54 +0000";
layers = (
{
layerId = UUID0;
paths = (
{
closed = 1;
nodes = (
"304 -2 OFFCURVE",
"345 38 OFFCURVE",
"450 38 CURVE SMOOTH",
"514 38 OFFCURVE",
"564 19 OFFCURVE",
"603 -2 CURVE",
"603 394 LINE SMOOTH",
"603 557 OFFCURVE",
"527 668 OFFCURVE",
"342 668 CURVE SMOOTH",
"225 668 OFFCURVE",
"139 617 OFFCURVE",
"90 514 CURVE",
"161 476 LINE",
"204 559 OFFCURVE",
"257 593 OFFCURVE",
"340 593 CURVE SMOOTH",
"456 593 OFFCURVE",
"522 526 OFFCURVE",
"522 413 CURVE SMOOTH",
"522 103 LINE",
"496 110 OFFCURVE",
"470 113 OFFCURVE",
"450 113 CURVE SMOOTH",
"365 113 OFFCURVE",
"298 71 OFFCURVE",
"206 71 CURVE SMOOTH",
"140 71 OFFCURVE",
"94 99 OFFCURVE",
"69 131 CURVE",
"20 77 LINE",
"56 34 OFFCURVE",
"111 -2 OFFCURVE",
"203 -2 CURVE SMOOTH"
);
}
);
width = 683;
}
);
unicode = AAE0;
},
{
glyphname = uniAAE1;
lastChange = "2017-12-08 18:54:54 +0000";
layers = (
{
layerId = UUID0;
paths = (
{
closed = 1;
nodes = (
"488 0 OFFCURVE",
"570 62 OFFCURVE",
"610 160 CURVE",
"541 198 LINE",
"508 123 OFFCURVE",
"455 75 OFFCURVE",
"362 75 CURVE SMOOTH",
"246 75 OFFCURVE",
"178 130 OFFCURVE",
"178 252 CURVE SMOOTH",
"178 586 LINE",
"610 586 LINE",
"610 659 LINE",
"32 659 LINE",
"32 586 LINE",
"96 586 LINE",
"96 274 LINE SMOOTH",
"96 106 OFFCURVE",
"176 0 OFFCURVE",
"363 0 CURVE SMOOTH"
);
}
);
width = 645;
}
);
unicode = AAE1;
},
{
glyphname = uniAAE2;
lastChange = "2017-12-08 18:54:54 +0000";
layers = (
{
layerId = UUID0;
paths = (
{
closed = 1;
nodes = (
"189 2 OFFCURVE",
"300 40 OFFCURVE",
"300 161 CURVE SMOOTH",
"300 241 OFFCURVE",
"247 308 OFFCURVE",
"200 364 CURVE SMOOTH",
"161 410 OFFCURVE",
"120 467 OFFCURVE",
"120 521 CURVE SMOOTH",
"120 552 OFFCURVE",
"137 582 OFFCURVE",
"181 582 CURVE SMOOTH",
"219 582 OFFCURVE",
"239 552 OFFCURVE",
"239 512 CURVE SMOOTH",
"239 493 OFFCURVE",
"237 481 OFFCURVE",
"232 465 CURVE",
"569 465 LINE",
"564 481 OFFCURVE",
"562 496 OFFCURVE",
"562 511 CURVE SMOOTH",
"562 552 OFFCURVE",
"582 582 OFFCURVE",
"620 582 CURVE SMOOTH",
"664 582 OFFCURVE",
"681 552 OFFCURVE",
"681 521 CURVE SMOOTH",
"681 467 OFFCURVE",
"640 410 OFFCURVE",
"601 364 CURVE SMOOTH",
"554 308 OFFCURVE",
"501 241 OFFCURVE",
"501 161 CURVE SMOOTH",
"501 40 OFFCURVE",
"612 2 OFFCURVE",
"651 -4 CURVE",
"672 75 LINE",
"651 79 OFFCURVE",
"582 101 OFFCURVE",
"582 161 CURVE SMOOTH",
"582 215 OFFCURVE",
"610 257 OFFCURVE",
"656 313 CURVE SMOOTH",
"706 373 OFFCURVE",
"761 442 OFFCURVE",
"761 521 CURVE SMOOTH",
"761 592 OFFCURVE",
"716 658 OFFCURVE",
"619 658 CURVE SMOOTH",
"531 658 OFFCURVE",
"485 594 OFFCURVE",
"487 535 CURVE",
"314 535 LINE",
"316 595 OFFCURVE",
"270 658 OFFCURVE",
"182 658 CURVE SMOOTH",
"85 658 OFFCURVE",
"40 592 OFFCURVE",
"40 521 CURVE SMOOTH",
"40 442 OFFCURVE",
"96 374 OFFCURVE",
"145 313 CURVE SMOOTH",
"190 257 OFFCURVE",
"219 215 OFFCURVE",
"219 161 CURVE SMOOTH",
"219 101 OFFCURVE",
"150 79 OFFCURVE",
"129 75 CURVE",
"150 -4 LINE"
);
}
);
width = 802;
}
);
unicode = AAE2;
},
{
glyphname = uniAAE3;
lastChange = "2018-03-02 15:36:03 +0000";
layers = (
{
layerId = UUID0;
paths = (
{
closed = 1;
nodes = (
"767 497 OFFCURVE",
"728 441 OFFCURVE",
"663 441 CURVE SMOOTH",
"577 441 OFFCURVE",
"523 498 OFFCURVE",
"523 577 CURVE SMOOTH",
"523 614 OFFCURVE",
"525 632 OFFCURVE",
"528 659 CURVE",
"450 659 LINE",
"388 243 LINE",
"376 291 OFFCURVE",
"321 356 OFFCURVE",
"221 356 CURVE SMOOTH",
"132 356 OFFCURVE",
"30 303 OFFCURVE",
"30 169 CURVE SMOOTH",
"30 146 OFFCURVE",
"33 120 OFFCURVE",
"40 92 CURVE",
"114 116 LINE",
"111 134 OFFCURVE",
"109 150 OFFCURVE",
"109 165 CURVE SMOOTH",
"109 247 OFFCURVE",
"155 288 OFFCURVE",
"226 288 CURVE SMOOTH",
"312 288 OFFCURVE",
"365 212 OFFCURVE",
"365 113 CURVE SMOOTH",
"365 100 OFFCURVE",
"364 88 OFFCURVE",
"360 61 CURVE SMOOTH",
"352 0 LINE",
"431 0 LINE",
"430 3 LINE",
"500 469 LINE",
"520 421 OFFCURVE",
"580 373 OFFCURVE",
"663 373 CURVE SMOOTH",
"767 373 OFFCURVE",
"848 452 OFFCURVE",
"848 588 CURVE",
"767 588 LINE"
);
}
);
width = 878;
}
);
unicode = AAE3;
},
{
glyphname = uniAAE4;
lastChange = "2018-03-02 15:36:19 +0000";
layers = (
{
layerId = UUID0;
paths = (
{
closed = 1;
nodes = (
"304 -4 OFFCURVE",
"399 38 OFFCURVE",
"399 158 CURVE SMOOTH",
"399 232 OFFCURVE",
"356 308 OFFCURVE",
"268 431 CURVE",
"291 462 LINE SMOOTH",
"338 526 OFFCURVE",
"381 583 OFFCURVE",
"434 583 CURVE SMOOTH",
"485 583 OFFCURVE",
"533 519 OFFCURVE",
"578 458 CURVE SMOOTH",
"598 431 LINE",
"508 307 OFFCURVE",
"466 234 OFFCURVE",
"466 159 CURVE SMOOTH",
"466 40 OFFCURVE",
"568 -3 OFFCURVE",
"647 -3 CURVE SMOOTH",
"730 -3 OFFCURVE",
"826 39 OFFCURVE",
"826 159 CURVE SMOOTH",
"826 233 OFFCURVE",
"784 311 OFFCURVE",
"694 433 CURVE",
"717 464 LINE SMOOTH",
"761 523 OFFCURVE",
"810 587 OFFCURVE",
"861 587 CURVE SMOOTH",
"913 587 OFFCURVE",
"947 567 OFFCURVE",
"947 462 CURVE SMOOTH",
"947 0 LINE",
"1032 0 LINE",
"1032 466 LINE SMOOTH",
"1032 615 OFFCURVE",
"969 663 OFFCURVE",
"867 663 CURVE SMOOTH",
"773 663 OFFCURVE",
"712 583 OFFCURVE",
"646 497 CURVE",
"579 585 OFFCURVE",
"521 659 OFFCURVE",
"435 659 CURVE SMOOTH",
"345 659 OFFCURVE",
"278 571 OFFCURVE",
"208 479 CURVE SMOOTH",
"95 330 OFFCURVE",
"40 241 OFFCURVE",
"40 158 CURVE SMOOTH",
"40 39 OFFCURVE",
"141 -4 OFFCURVE",
"220 -4 CURVE SMOOTH"
);
},
{
closed = 1;
nodes = (
"165 70 OFFCURVE",
"123 103 OFFCURVE",
"123 171 CURVE SMOOTH",
"123 221 OFFCURVE",
"160 284 OFFCURVE",
"218 365 CURVE",
"276 287 OFFCURVE",
"316 221 OFFCURVE",
"316 173 CURVE SMOOTH",
"316 103 OFFCURVE",
"275 70 OFFCURVE",
"219 70 CURVE SMOOTH"
);
},
{
closed = 1;
nodes = (
"591 71 OFFCURVE",
"550 104 OFFCURVE",
"550 172 CURVE SMOOTH",
"550 222 OFFCURVE",
"587 285 OFFCURVE",
"645 366 CURVE",
"703 288 OFFCURVE",
"742 222 OFFCURVE",
"742 174 CURVE SMOOTH",
"742 104 OFFCURVE",
"702 71 OFFCURVE",
"646 71 CURVE SMOOTH"
);
}
);
width = 1112;
}
);
unicode = AAE4;
},
{
glyphname = uniAAE5;
lastChange = "2017-12-08 18:54:54 +0000";
layers = (
{
layerId = UUID0;
paths = (
{
closed = 1;
nodes = (
"585 0 LINE",
"585 435 LINE",
"381 435 LINE",
"381 585 LINE",
"640 585 LINE",
"640 659 LINE",
"40 659 LINE",
"40 585 LINE",
"300 585 LINE",
"300 435 LINE",
"95 435 LINE",
"95 0 LINE"
);
},
{
closed = 1;
nodes = (
"179 361 LINE",
"300 361 LINE",
"300 70 LINE",
"179 70 LINE"
);
},
{
closed = 1;
nodes = (
"381 361 LINE",
"502 361 LINE",
"502 70 LINE",
"381 70 LINE"
);
}
);
width = 680;
}
);
unicode = AAE5;
},
{
glyphname = uniAAE6;
lastChange = "2017-12-08 18:54:54 +0000";
layers = (
{
layerId = UUID0;
paths = (
{
closed = 1;
nodes = (
"389 225 OFFCURVE",
"356 255 OFFCURVE",
"356 306 CURVE SMOOTH",
"356 364 OFFCURVE",
"385 406 OFFCURVE",
"432 476 CURVE",
"481 407 OFFCURVE",
"509 365 OFFCURVE",
"509 308 CURVE SMOOTH",
"509 255 OFFCURVE",
"477 225 OFFCURVE",
"432 225 CURVE SMOOTH"
);
},
{
closed = 1;
nodes = (
"512 575 OFFCURVE",
"550 595 OFFCURVE",
"602 595 CURVE SMOOTH",
"666 595 OFFCURVE",
"727 550 OFFCURVE",
"727 353 CURVE SMOOTH",
"727 162 OFFCURVE",
"654 82 OFFCURVE",
"531 75 CURVE",
"531 -1 LINE",
"701 6 OFFCURVE",
"809 116 OFFCURVE",
"809 353 CURVE SMOOTH",
"809 610 OFFCURVE",
"703 668 OFFCURVE",
"600 668 CURVE SMOOTH",
"512 668 OFFCURVE",
"467 630 OFFCURVE",
"433 594 CURVE",
"403 630 OFFCURVE",
"357 668 OFFCURVE",
"274 668 CURVE SMOOTH",
"161 668 OFFCURVE",
"48 594 OFFCURVE",
"48 352 CURVE SMOOTH",
"48 115 OFFCURVE",
"165 3 OFFCURVE",
"331 -1 CURVE",
"331 75 LINE",
"203 79 OFFCURVE",
"135 161 OFFCURVE",
"135 352 CURVE SMOOTH",
"135 550 OFFCURVE",
"202 594 OFFCURVE",
"270 594 CURVE SMOOTH",
"318 594 OFFCURVE",
"356 575 OFFCURVE",
"387 536 CURVE",
"307 432 OFFCURVE",
"273 385 OFFCURVE",
"273 303 CURVE SMOOTH",
"273 194 OFFCURVE",
"363 151 OFFCURVE",
"433 151 CURVE SMOOTH",
"508 151 OFFCURVE",
"592 193 OFFCURVE",
"592 303 CURVE SMOOTH",
"592 384 OFFCURVE",
"556 434 OFFCURVE",
"481 536 CURVE"
);
}
);
width = 857;
}
);
unicode = AAE6;
},
{
glyphname = uniAAE7;
lastChange = "2017-12-08 18:54:54 +0000";
layers = (
{
layerId = UUID0;
paths = (
{
closed = 1;
nodes = (
"551 -3 OFFCURVE",
"646 39 OFFCURVE",
"646 159 CURVE SMOOTH",
"646 233 OFFCURVE",
"603 309 OFFCURVE",
"515 431 CURVE",
"560 491 OFFCURVE",
"628 583 OFFCURVE",
"682 583 CURVE SMOOTH",
"733 583 OFFCURVE",
"767 560 OFFCURVE",
"767 466 CURVE SMOOTH",
"767 0 LINE",
"852 0 LINE",
"852 470 LINE SMOOTH",
"852 606 OFFCURVE",
"790 659 OFFCURVE",
"688 659 CURVE SMOOTH",
"593 659 OFFCURVE",
"532 584 OFFCURVE",
"466 497 CURVE",
"401 586 OFFCURVE",
"341 659 OFFCURVE",
"245 659 CURVE SMOOTH",
"143 659 OFFCURVE",
"80 606 OFFCURVE",
"80 470 CURVE SMOOTH",
"80 0 LINE",
"166 0 LINE",
"166 466 LINE SMOOTH",
"166 560 OFFCURVE",
"199 583 OFFCURVE",
"251 583 CURVE SMOOTH",
"301 583 OFFCURVE",
"356 511 OFFCURVE",
"418 431 CURVE",
"327 307 OFFCURVE",
"287 234 OFFCURVE",
"287 159 CURVE SMOOTH",
"287 40 OFFCURVE",
"388 -3 OFFCURVE",
"467 -3 CURVE SMOOTH"
);
},
{
closed = 1;
nodes = (
"412 71 OFFCURVE",
"370 104 OFFCURVE",
"370 172 CURVE SMOOTH",
"370 224 OFFCURVE",
"406 285 OFFCURVE",
"466 367 CURVE",
"527 286 OFFCURVE",
"563 225 OFFCURVE",
"563 174 CURVE SMOOTH",
"563 104 OFFCURVE",
"522 71 OFFCURVE",
"466 71 CURVE SMOOTH"
);
}
);
width = 932;
}
);
unicode = AAE7;
},
{
glyphname = uniAAE8;
lastChange = "2017-12-08 18:54:54 +0000";
layers = (
{
layerId = UUID0;
paths = (
{
closed = 1;
nodes = (
"198 0 LINE",
"198 587 LINE",
"633 587 LINE",
"633 659 LINE",
"55 659 LINE",
"55 586 LINE",
"117 586 LINE",
"117 0 LINE"
);
},
{
closed = 1;
nodes = (
"604 309 LINE SMOOTH",
"608 323 OFFCURVE",
"613 354 OFFCURVE",
"613 366 CURVE SMOOTH",
"613 454 OFFCURVE",
"543 478 OFFCURVE",
"483 478 CURVE SMOOTH",
"257 478 LINE",
"257 408 LINE",
"468 408 LINE SMOOTH",
"511 408 OFFCURVE",
"534 393 OFFCURVE",
"534 355 CURVE SMOOTH",
"534 347 OFFCURVE",
"534 339 OFFCURVE",
"532 330 CURVE SMOOTH",
"447 8 LINE",
"520 -7 LINE"
);
}
);
width = 678;
}
);
leftMetricsKey = uniABE1;
unicode = AAE8;
},
{
glyphname = uniAAE9;
lastChange = "2017-12-08 18:54:54 +0000";
layers = (
{
layerId = UUID0;
paths = (
{
closed = 1;
nodes = (
"403 -9 OFFCURVE",
"517 35 OFFCURVE",
"517 176 CURVE SMOOTH",
"517 262 OFFCURVE",
"450 330 OFFCURVE",
"370 405 CURVE",
"441 468 OFFCURVE",
"515 524 OFFCURVE",
"564 557 CURVE",
"615 523 OFFCURVE",
"689 465 OFFCURVE",
"756 406 CURVE",
"678 331 OFFCURVE",
"610 261 OFFCURVE",
"610 176 CURVE SMOOTH",
"610 35 OFFCURVE",
"723 -9 OFFCURVE",
"809 -9 CURVE SMOOTH",
"893 -9 OFFCURVE",
"1007 35 OFFCURVE",
"1007 176 CURVE SMOOTH",
"1007 262 OFFCURVE",
"940 330 OFFCURVE",
"860 405 CURVE",
"968 501 OFFCURVE",
"1083 573 OFFCURVE",
"1106 586 CURVE",
"1106 659 LINE",
"20 659 LINE",
"20 586 LINE",
"45 573 OFFCURVE",
"165 495 OFFCURVE",
"266 406 CURVE",
"188 331 OFFCURVE",
"120 261 OFFCURVE",
"120 176 CURVE SMOOTH",
"120 35 OFFCURVE",
"233 -9 OFFCURVE",
"319 -9 CURVE SMOOTH"
);
},
{
closed = 1;
nodes = (
"262 62 OFFCURVE",
"207 100 OFFCURVE",
"207 179 CURVE SMOOTH",
"207 237 OFFCURVE",
"243 295 OFFCURVE",
"319 349 CURVE",
"385 296 OFFCURVE",
"430 236 OFFCURVE",
"430 179 CURVE SMOOTH",
"430 100 OFFCURVE",
"373 62 OFFCURVE",
"319 62 CURVE SMOOTH"
);
},
{
closed = 1;
nodes = (
"254 507 OFFCURVE",
"207 544 OFFCURVE",
"149 586 CURVE",
"495 586 LINE",
"430 544 OFFCURVE",
"383 508 OFFCURVE",
"319 453 CURVE"
);
},
{
closed = 1;
nodes = (
"752 62 OFFCURVE",
"697 100 OFFCURVE",
"697 179 CURVE SMOOTH",
"697 237 OFFCURVE",
"733 295 OFFCURVE",
"809 349 CURVE",
"875 296 OFFCURVE",
"920 236 OFFCURVE",
"920 179 CURVE SMOOTH",
"920 100 OFFCURVE",
"863 62 OFFCURVE",
"809 62 CURVE SMOOTH"
);
},
{
closed = 1;
nodes = (
"744 507 OFFCURVE",
"697 544 OFFCURVE",
"639 586 CURVE",
"985 586 LINE",
"920 544 OFFCURVE",
"873 508 OFFCURVE",
"809 453 CURVE"
);
}
);
width = 1126;
}
);
unicode = AAE9;
},
{
glyphname = uniAAEA;
lastChange = "2017-12-08 18:54:54 +0000";
layers = (
{
layerId = UUID0;
paths = (
{
closed = 1;
nodes = (
"611 0 LINE",
"611 386 LINE SMOOTH",
"611 540 OFFCURVE",
"528 664 OFFCURVE",
"344 664 CURVE SMOOTH",
"166 664 OFFCURVE",
"80 540 OFFCURVE",
"80 386 CURVE SMOOTH",
"80 0 LINE"
);
},
{
closed = 1;
nodes = (
"163 282 LINE",
"529 282 LINE",
"529 71 LINE",
"163 71 LINE"
);
},
{
closed = 1;
nodes = (
"163 399 LINE SMOOTH",
"163 518 OFFCURVE",
"230 588 OFFCURVE",
"345 588 CURVE SMOOTH",
"461 588 OFFCURVE",
"529 520 OFFCURVE",
"529 399 CURVE SMOOTH",
"529 353 LINE",
"163 353 LINE"
);
}
);
width = 691;
}
);
unicode = AAEA;
},
{
glyphname = uniAAEB;
lastChange = "2017-12-08 18:54:54 +0000";
layers = (
{
layerId = UUID0;
paths = (
{
closed = 1;
nodes = (
"285 0 LINE",
"285 582 LINE",
"380 582 LINE",
"380 659 LINE",
"285 659 LINE",
"285 713 LINE SMOOTH",
"285 803 OFFCURVE",
"235 845 OFFCURVE",
"149 845 CURVE SMOOTH",
"87 845 OFFCURVE",
"19 808 OFFCURVE",
"19 720 CURVE SMOOTH",
"19 612 OFFCURVE",
"107 584 OFFCURVE",
"200 582 CURVE",
"200 0 LINE"
);
},
{
closed = 1;
nodes = (
"141 659 OFFCURVE",
"103 670 OFFCURVE",
"103 721 CURVE SMOOTH",
"103 759 OFFCURVE",
"126 774 OFFCURVE",
"151 774 CURVE SMOOTH",
"184 774 OFFCURVE",
"200 759 OFFCURVE",
"200 713 CURVE SMOOTH",
"200 659 LINE"
);
}
);
width = 399;
}
);
unicode = AAEB;
},
{
glyphname = uniAAEC;
lastChange = "2017-12-08 18:54:54 +0000";
layers = (
{
layerId = UUID0;
paths = (
{
closed = 1;
nodes = (
"-271 -201 OFFCURVE",
"-245 -191 OFFCURVE",
"-228 -162 CURVE",
"-213 -187 OFFCURVE",
"-186 -201 OFFCURVE",
"-156 -201 CURVE SMOOTH",
"-78 -201 OFFCURVE",
"-62 -147 OFFCURVE",
"-62 -102 CURVE SMOOTH",
"-62 -82 OFFCURVE",
"-65 -63 OFFCURVE",
"-66 -60 CURVE",
"-121 -60 LINE",
"-120 -69 OFFCURVE",
"-118 -87 OFFCURVE",
"-118 -99 CURVE SMOOTH",
"-118 -131 OFFCURVE",
"-129 -146 OFFCURVE",
"-159 -146 CURVE SMOOTH",
"-180 -146 OFFCURVE",
"-199 -131 OFFCURVE",
"-199 -106 CURVE SMOOTH",
"-199 -60 LINE",
"-257 -60 LINE",
"-257 -106 LINE SMOOTH",
"-257 -134 OFFCURVE",
"-279 -146 OFFCURVE",
"-300 -146 CURVE SMOOTH",
"-329 -146 OFFCURVE",
"-340 -131 OFFCURVE",
"-340 -99 CURVE SMOOTH",
"-340 -81 OFFCURVE",
"-338 -64 OFFCURVE",
"-337 -60 CURVE",
"-392 -60 LINE",
"-394 -70 OFFCURVE",
"-396 -88 OFFCURVE",
"-396 -102 CURVE SMOOTH",
"-396 -147 OFFCURVE",
"-380 -201 OFFCURVE",
"-303 -201 CURVE SMOOTH"
);
}
);
width = 0;
}
);
unicode = AAEC;
},
{
glyphname = uniAAED;
lastChange = "2018-03-02 15:36:41 +0000";
layers = (
{
layerId = UUID0;
paths = (
{
closed = 1;
nodes = (
"-311 710 OFFCURVE",
"-258 740 OFFCURVE",
"-258 807 CURVE SMOOTH",
"-258 898 OFFCURVE",
"-373 988 OFFCURVE",
"-463 1041 CURVE",
"-498 986 LINE",
"-455 961 OFFCURVE",
"-419 939 OFFCURVE",
"-397 914 CURVE",
"-438 885 OFFCURVE",
"-464 855 OFFCURVE",
"-464 809 CURVE SMOOTH",
"-464 742 OFFCURVE",
"-417 710 OFFCURVE",
"-362 710 CURVE SMOOTH"
);
},
{
closed = 1;
nodes = (
"-385 768 OFFCURVE",
"-401 783 OFFCURVE",
"-401 809 CURVE SMOOTH",
"-401 839 OFFCURVE",
"-382 859 OFFCURVE",
"-354 877 CURVE",
"-336 861 OFFCURVE",
"-325 836 OFFCURVE",
"-325 812 CURVE SMOOTH",
"-325 782 OFFCURVE",
"-347 768 OFFCURVE",
"-364 768 CURVE SMOOTH"
);
}
);
width = 0;
}
);
unicode = AAED;
},
{
glyphname = uniAAEE;
lastChange = "2017-12-08 18:54:54 +0000";
layers = (
{
layerId = UUID0;
paths = (
{
closed = 1;
nodes = (
"285 0 LINE",
"285 452 LINE",
"361 452 LINE",
"361 529 LINE",
"285 529 LINE",
"285 713 LINE SMOOTH",
"285 803 OFFCURVE",
"235 845 OFFCURVE",
"149 845 CURVE SMOOTH",
"87 845 OFFCURVE",
"19 808 OFFCURVE",
"19 720 CURVE SMOOTH",
"19 618 OFFCURVE",
"100 582 OFFCURVE",
"189 582 CURVE SMOOTH",
"200 582 LINE",
"200 0 LINE"
);
},
{
closed = 1;
nodes = (
"134 658 OFFCURVE",
"103 676 OFFCURVE",
"103 721 CURVE SMOOTH",
"103 759 OFFCURVE",
"126 774 OFFCURVE",
"151 774 CURVE SMOOTH",
"184 774 OFFCURVE",
"200 759 OFFCURVE",
"200 713 CURVE SMOOTH",
"200 659 LINE",
"193 658 OFFCURVE",
"187 658 OFFCURVE",
"181 658 CURVE SMOOTH"
);
}
);
width = 380;
}
);
unicode = AAEE;
},
{
glyphname = uniAAEF;
lastChange = "2017-12-08 18:54:54 +0000";
layers = (
{
layerId = UUID0;
paths = (
{
closed = 1;
nodes = (
"180 0 LINE",
"180 582 LINE",
"191 582 LINE SMOOTH",
"280 582 OFFCURVE",
"361 618 OFFCURVE",
"361 720 CURVE SMOOTH",
"361 808 OFFCURVE",
"293 845 OFFCURVE",
"231 845 CURVE SMOOTH",
"145 845 OFFCURVE",
"95 803 OFFCURVE",
"95 713 CURVE SMOOTH",
"95 529 LINE",
"19 529 LINE",
"19 452 LINE",
"95 452 LINE",
"95 0 LINE"
);
},
{
closed = 1;
nodes = (
"193 658 OFFCURVE",
"187 658 OFFCURVE",
"180 659 CURVE",
"180 713 LINE SMOOTH",
"180 759 OFFCURVE",
"196 774 OFFCURVE",
"229 774 CURVE SMOOTH",
"254 774 OFFCURVE",
"277 759 OFFCURVE",
"277 721 CURVE SMOOTH",
"277 678 OFFCURVE",
"246 658 OFFCURVE",
"199 658 CURVE SMOOTH"
);
}
);
width = 380;
}
);
unicode = AAEF;
},
{
glyphname = uniAAF0;
lastChange = "2017-12-08 18:54:54 +0000";
layers = (
{
layerId = UUID0;
paths = (
{
closed = 1;
nodes = (
"168 -30 LINE",
"168 688 LINE",
"86 688 LINE",
"86 -30 LINE"
);
}
);
width = 254;
}
);
unicode = AAF0;
},
{
glyphname = uniAAF1;
lastChange = "2017-12-08 18:54:54 +0000";
layers = (
{
layerId = UUID0;
paths = (
{
closed = 1;
nodes = (
"440 312 OFFCURVE",
"535 344 OFFCURVE",
"605 432 CURVE",
"553 480 LINE",
"495 407 OFFCURVE",
"419 381 OFFCURVE",
"319 381 CURVE SMOOTH",
"221 381 OFFCURVE",
"145 408 OFFCURVE",
"88 480 CURVE",
"35 432 LINE",
"106 342 OFFCURVE",
"195 312 OFFCURVE",
"319 312 CURVE SMOOTH"
);
},
{
closed = 1;
nodes = (
"145 156 OFFCURVE",
"221 183 OFFCURVE",
"319 183 CURVE SMOOTH",
"419 183 OFFCURVE",
"495 157 OFFCURVE",
"553 83 CURVE",
"605 132 LINE",
"535 219 OFFCURVE",
"440 251 OFFCURVE",
"319 251 CURVE SMOOTH",
"195 251 OFFCURVE",
"106 221 OFFCURVE",
"35 132 CURVE",
"88 83 LINE"
);
}
);
width = 640;
}
);
unicode = AAF1;
},
{
glyphname = uniAAF2;
lastChange = "2017-12-08 18:54:54 +0000";
layers = (
{
layerId = UUID0;
paths = (
{
closed = 1;
nodes = (
"301 -3 OFFCURVE",
"371 31 OFFCURVE",
"416 110 CURVE",
"355 152 LINE",
"322 93 OFFCURVE",
"279 65 OFFCURVE",
"228 65 CURVE SMOOTH",
"173 65 OFFCURVE",
"128 90 OFFCURVE",
"128 149 CURVE SMOOTH",
"128 200 OFFCURVE",
"183 242 OFFCURVE",
"248 290 CURVE SMOOTH",
"317 341 OFFCURVE",
"400 385 OFFCURVE",
"400 470 CURVE SMOOTH",
"400 567 OFFCURVE",
"332 622 OFFCURVE",
"237 622 CURVE SMOOTH",
"167 622 OFFCURVE",
"101 592 OFFCURVE",
"62 517 CURVE",
"130 483 LINE",
"155 536 OFFCURVE",
"194 554 OFFCURVE",
"237 554 CURVE SMOOTH",
"290 554 OFFCURVE",
"325 526 OFFCURVE",
"325 474 CURVE SMOOTH",
"325 432 OFFCURVE",
"296 412 OFFCURVE",
"207 347 CURVE SMOOTH",
"109 275 OFFCURVE",
"51 230 OFFCURVE",
"51 153 CURVE SMOOTH",
"51 47 OFFCURVE",
"135 -3 OFFCURVE",
"229 -3 CURVE SMOOTH"
);
},
{
closed = 1;
nodes = (
"293 659 OFFCURVE",
"364 680 OFFCURVE",
"391 756 CURVE",
"332 776 LINE",
"313 732 OFFCURVE",
"279 713 OFFCURVE",
"234 713 CURVE SMOOTH",
"190 713 OFFCURVE",
"157 732 OFFCURVE",
"136 778 CURVE",
"77 756 LINE",
"106 679 OFFCURVE",
"175 659 OFFCURVE",
"234 659 CURVE SMOOTH"
);
},
{
closed = 1;
nodes = (
"256 768 OFFCURVE",
"274 786 OFFCURVE",
"274 809 CURVE SMOOTH",
"274 832 OFFCURVE",
"256 850 OFFCURVE",
"233 850 CURVE SMOOTH",
"210 850 OFFCURVE",
"192 832 OFFCURVE",
"192 809 CURVE SMOOTH",
"192 786 OFFCURVE",
"210 768 OFFCURVE",
"233 768 CURVE SMOOTH"
);
}
);
width = 466;
}
);
unicode = AAF2;
},
{
glyphname = uniAAF3;
lastChange = "2017-12-08 18:54:54 +0000";
layers = (
{
layerId = UUID0;
paths = (
{
closed = 1;
nodes = (
"159 73 OFFCURVE",
"238 151 OFFCURVE",
"308 214 CURVE",
"376 152 OFFCURVE",
"441 87 OFFCURVE",
"544 -9 CURVE",
"596 49 LINE",
"521 114 OFFCURVE",
"451 175 OFFCURVE",
"360 261 CURVE",
"445 330 OFFCURVE",
"507 394 OFFCURVE",
"507 479 CURVE SMOOTH",
"507 620 OFFCURVE",
"396 659 OFFCURVE",
"306 659 CURVE SMOOTH",
"220 659 OFFCURVE",
"109 620 OFFCURVE",
"109 479 CURVE SMOOTH",
"109 394 OFFCURVE",
"169 329 OFFCURVE",
"255 260 CURVE",
"162 174 OFFCURVE",
"96 115 OFFCURVE",
"20 49 CURVE",
"72 -9 LINE"
);
},
{
closed = 1;
nodes = (
"227 375 OFFCURVE",
"196 418 OFFCURVE",
"196 476 CURVE SMOOTH",
"196 555 OFFCURVE",
"251 588 OFFCURVE",
"308 588 CURVE SMOOTH",
"365 588 OFFCURVE",
"420 555 OFFCURVE",
"420 476 CURVE SMOOTH",
"420 418 OFFCURVE",
"391 375 OFFCURVE",
"308 310 CURVE"
);
}
);
width = 616;
}
);
unicode = AAF3;
},
{
glyphname = uniAAF4;
lastChange = "2017-12-08 18:54:54 +0000";
layers = (
{
layerId = UUID0;
paths = (
{
closed = 1;
nodes = (
"348 40 LINE",
"274 119 OFFCURVE",
"213 191 OFFCURVE",
"150 262 CURVE",
"235 338 OFFCURVE",
"278 398 OFFCURVE",
"278 479 CURVE SMOOTH",
"278 606 OFFCURVE",
"187 659 OFFCURVE",
"86 659 CURVE SMOOTH",
"75 659 OFFCURVE",
"62 658 OFFCURVE",
"50 657 CURVE",
"59 581 LINE",
"65 582 OFFCURVE",
"73 582 OFFCURVE",
"79 582 CURVE SMOOTH",
"145 582 OFFCURVE",
"193 545 OFFCURVE",
"193 471 CURVE SMOOTH",
"193 419 OFFCURVE",
"174 375 OFFCURVE",
"52 269 CURVE",
"111 199 OFFCURVE",
"194 98 OFFCURVE",
"290 -9 CURVE"
);
}
);
width = 368;
}
);
unicode = AAF4;
},
{
glyphname = uniAAF5;
lastChange = "2017-12-08 18:54:54 +0000";
layers = (
{
layerId = UUID0;
paths = (
{
closed = 1;
nodes = (
"228 113 OFFCURVE",
"290 163 OFFCURVE",
"290 235 CURVE SMOOTH",
"290 309 OFFCURVE",
"228 362 OFFCURVE",
"152 362 CURVE SMOOTH",
"81 362 OFFCURVE",
"20 309 OFFCURVE",
"20 235 CURVE SMOOTH",
"20 163 OFFCURVE",
"81 113 OFFCURVE",
"152 113 CURVE SMOOTH"
);
},
{
closed = 1;
nodes = (
"193 0 LINE",
"193 158 LINE",
"111 158 LINE",
"111 0 LINE"
);
},
{
closed = 1;
nodes = (
"119 177 OFFCURVE",
"93 202 OFFCURVE",
"93 238 CURVE SMOOTH",
"93 272 OFFCURVE",
"119 299 OFFCURVE",
"152 299 CURVE SMOOTH",
"188 299 OFFCURVE",
"214 272 OFFCURVE",
"214 238 CURVE SMOOTH",
"214 202 OFFCURVE",
"188 177 OFFCURVE",
"152 177 CURVE SMOOTH"
);
}
);
width = 315;
}
);
unicode = AAF5;
},
{
glyphname = uniAAF6;
lastChange = "2017-12-08 18:54:54 +0000";
layers = (
{
layerId = UUID0;
paths = (
{
closed = 1;
nodes = (
"-463 -318 LINE",
"-463 -90 LINE",
"-530 -90 LINE",
"-530 -318 LINE"
);
},
{
closed = 1;
nodes = (
"-383 -235 LINE",
"-383 -172 LINE",
"-611 -172 LINE",
"-611 -235 LINE"
);
}
);
width = 0;
}
);
unicode = AAF6;
},
{
glyphname = uniABC0;
lastChange = "2017-12-08 18:54:54 +0000";
layers = (
{
layerId = UUID0;
paths = (
{
closed = 1;
nodes = (
"802 0 LINE",
"802 585 LINE",
"840 585 LINE",
"840 659 LINE",
"55 659 LINE",
"55 585 LINE",
"88 585 LINE",
"88 0 LINE"
);
},
{
closed = 1;
nodes = (
"171 74 LINE",
"302 176 LINE",
"302 69 LINE",
"171 69 LINE"
);
},
{
closed = 1;
nodes = (
"171 585 LINE",
"302 585 LINE",
"302 261 LINE",
"171 161 LINE"
);
},
{
closed = 1;
nodes = (
"384 239 LINE",
"508 335 LINE",
"508 69 LINE",
"384 69 LINE"
);
},
{
closed = 1;
nodes = (
"384 585 LINE",
"508 585 LINE",
"508 418 LINE",
"384 323 LINE"
);
},
{
closed = 1;
nodes = (
"588 397 LINE",
"722 501 LINE",
"722 69 LINE",
"588 69 LINE"
);
},
{
closed = 1;
nodes = (
"588 585 LINE",
"722 585 LINE",
"722 580 LINE",
"588 478 LINE"
);
}
);
width = 895;
}
);
leftMetricsKey = uniABE1;
rightMetricsKey = uniABE1;
unicode = ABC0;
},
{
glyphname = uniABC1;
lastChange = "2017-12-08 18:54:54 +0000";
layers = (
{
layerId = UUID0;
paths = (
{
closed = 1;
nodes = (
"327 77 LINE",
"199 80 OFFCURVE",
"135 181 OFFCURVE",
"135 352 CURVE SMOOTH",
"135 540 OFFCURVE",
"186 590 OFFCURVE",
"254 590 CURVE SMOOTH",
"320 590 OFFCURVE",
"379 545 OFFCURVE",
"381 342 CURVE",
"463 342 LINE",
"466 549 OFFCURVE",
"525 591 OFFCURVE",
"596 591 CURVE SMOOTH",
"659 591 OFFCURVE",
"707 544 OFFCURVE",
"707 353 CURVE SMOOTH",
"707 182 OFFCURVE",
"638 82 OFFCURVE",
"515 77 CURVE",
"515 -1 LINE",
"685 5 OFFCURVE",
"789 135 OFFCURVE",
"789 353 CURVE SMOOTH",
"789 593 OFFCURVE",
"691 669 OFFCURVE",
"593 669 CURVE SMOOTH",
"514 669 OFFCURVE",
"454 633 OFFCURVE",
"424 529 CURVE",
"420 529 LINE",
"394 633 OFFCURVE",
"323 668 OFFCURVE",
"259 668 CURVE SMOOTH",
"153 668 OFFCURVE",
"48 593 OFFCURVE",
"48 352 CURVE SMOOTH",
"48 134 OFFCURVE",
"161 2 OFFCURVE",
"327 -1 CURVE"
);
}
);
width = 837;
}
);
unicode = ABC1;
},
{
glyphname = uniABC2;
lastChange = "2017-12-08 18:54:54 +0000";
layers = (
{
layerId = UUID0;
paths = (
{
closed = 1;
nodes = (
"429 -4 OFFCURVE",
"508 33 OFFCURVE",
"569 89 CURVE",
"529 157 LINE",
"479 111 OFFCURVE",
"407 70 OFFCURVE",
"326 70 CURVE SMOOTH",
"231 70 OFFCURVE",
"151 123 OFFCURVE",
"151 252 CURVE SMOOTH",
"151 379 OFFCURVE",
"230 436 OFFCURVE",
"308 436 CURVE SMOOTH",
"377 436 OFFCURVE",
"435 407 OFFCURVE",
"474 355 CURVE",
"556 355 LINE",
"556 586 LINE",
"592 586 LINE",
"592 659 LINE",
"40 659 LINE",
"40 586 LINE",
"474 586 LINE",
"474 452 LINE",
"427 484 OFFCURVE",
"371 506 OFFCURVE",
"302 506 CURVE SMOOTH",
"183 506 OFFCURVE",
"65 441 OFFCURVE",
"65 253 CURVE SMOOTH",
"65 65 OFFCURVE",
"198 -4 OFFCURVE",
"326 -4 CURVE SMOOTH"
);
}
);
width = 632;
}
);
unicode = ABC2;
},
{
glyphname = uniABC3;
lastChange = "2017-12-08 18:54:54 +0000";
layers = (
{
layerId = UUID0;
paths = (
{
closed = 1;
nodes = (
"664 -3 OFFCURVE",
"684 -2 OFFCURVE",
"699 2 CURVE",
"683 73 LINE",
"676 72 OFFCURVE",
"667 71 OFFCURVE",
"659 71 CURVE SMOOTH",
"591 71 OFFCURVE",
"563 113 OFFCURVE",
"563 165 CURVE SMOOTH",
"563 214 OFFCURVE",
"597 266 OFFCURVE",
"659 272 CURVE",
"659 343 LINE",
"392 343 LINE",
"392 586 LINE",
"691 586 LINE",
"691 659 LINE",
"55 659 LINE",
"55 586 LINE",
"90 586 LINE",
"90 0 LINE",
"171 0 LINE",
"171 272 LINE",
"311 272 LINE",
"311 0 LINE",
"392 0 LINE",
"392 272 LINE",
"540 272 LINE",
"504 242 OFFCURVE",
"487 199 OFFCURVE",
"487 150 CURVE SMOOTH",
"487 62 OFFCURVE",
"543 -3 OFFCURVE",
"647 -3 CURVE SMOOTH"
);
},
{
closed = 1;
nodes = (
"171 586 LINE",
"311 586 LINE",
"311 343 LINE",
"171 343 LINE"
);
}
);
width = 739;
}
);
leftMetricsKey = uniABE1;
unicode = ABC3;
},
{
glyphname = uniABC4;
lastChange = "2017-12-08 18:54:54 +0000";
layers = (
{
layerId = UUID0;
paths = (
{
closed = 1;
nodes = (
"207 26 OFFCURVE",
"280 148 OFFCURVE",
"280 272 CURVE SMOOTH",
"280 373 OFFCURVE",
"232 486 OFFCURVE",
"148 586 CURVE",
"356 586 LINE",
"356 0 LINE",
"438 0 LINE",
"438 586 LINE",
"543 586 LINE",
"543 0 LINE",
"625 0 LINE",
"625 586 LINE",
"832 586 LINE",
"749 486 OFFCURVE",
"701 373 OFFCURVE",
"701 272 CURVE SMOOTH",
"701 148 OFFCURVE",
"774 26 OFFCURVE",
"929 0 CURVE",
"951 73 LINE",
"823 100 OFFCURVE",
"783 198 OFFCURVE",
"783 285 CURVE SMOOTH",
"783 381 OFFCURVE",
"832 492 OFFCURVE",
"936 586 CURVE",
"936 659 LINE",
"45 659 LINE",
"45 586 LINE",
"145 493 OFFCURVE",
"198 377 OFFCURVE",
"198 285 CURVE SMOOTH",
"198 198 OFFCURVE",
"159 100 OFFCURVE",
"30 73 CURVE",
"53 0 LINE"
);
}
);
width = 981;
}
);
unicode = ABC4;
},
{
glyphname = uniABC5;
lastChange = "2017-12-08 18:54:54 +0000";
layers = (
{
layerId = UUID0;
paths = (
{
closed = 1;
nodes = (
"475 -7 OFFCURVE",
"565 33 OFFCURVE",
"640 98 CURVE",
"591 159 LINE",
"532 110 OFFCURVE",
"465 74 OFFCURVE",
"379 74 CURVE SMOOTH",
"263 74 OFFCURVE",
"161 151 OFFCURVE",
"161 322 CURVE SMOOTH",
"161 445 OFFCURVE",
"197 546 OFFCURVE",
"213 586 CURVE",
"549 586 LINE",
"433 371 LINE",
"507 332 LINE",
"639 586 LINE",
"689 586 LINE",
"689 659 LINE",
"50 659 LINE",
"50 586 LINE",
"117 586 LINE",
"97 523 OFFCURVE",
"72 424 OFFCURVE",
"72 322 CURVE SMOOTH",
"72 102 OFFCURVE",
"217 -7 OFFCURVE",
"377 -7 CURVE SMOOTH"
);
}
);
width = 725;
}
);
unicode = ABC5;
},
{
glyphname = uniABC6;
lastChange = "2018-03-02 15:33:36 +0000";
layers = (
{
layerId = UUID0;
paths = (
{
closed = 1;
nodes = (
"205 24 OFFCURVE",
"273 145 OFFCURVE",
"275 266 CURVE",
"506 266 LINE",
"508 145 OFFCURVE",
"575 24 OFFCURVE",
"728 0 CURVE",
"751 73 LINE",
"624 100 OFFCURVE",
"587 198 OFFCURVE",
"587 285 CURVE SMOOTH",
"587 377 OFFCURVE",
"645 499 OFFCURVE",
"739 586 CURVE",
"739 659 LINE",
"41 659 LINE",
"41 586 LINE",
"146 493 OFFCURVE",
"195 381 OFFCURVE",
"195 285 CURVE SMOOTH",
"195 198 OFFCURVE",
"158 100 OFFCURVE",
"30 73 CURVE",
"53 0 LINE"
);
},
{
closed = 1;
nodes = (
"253 421 OFFCURVE",
"210 507 OFFCURVE",
"145 586 CURVE",
"640 586 LINE",
"574 507 OFFCURVE",
"529 421 OFFCURVE",
"513 338 CURVE",
"268 338 LINE"
);
}
);
width = 781;
}
);
unicode = ABC6;
},
{
glyphname = uniABC7;
lastChange = "2018-03-02 15:37:04 +0000";
layers = (
{
layerId = UUID0;
paths = (
{
closed = 1;
nodes = (
"310 -3 OFFCURVE",
"382 86 OFFCURVE",
"382 209 CURVE SMOOTH",
"382 335 OFFCURVE",
"300 471 OFFCURVE",
"179 586 CURVE",
"350 586 LINE SMOOTH",
"391 586 OFFCURVE",
"456 583 OFFCURVE",
"509 563 CURVE",
"473 527 OFFCURVE",
"437 469 OFFCURVE",
"437 416 CURVE SMOOTH",
"437 300 OFFCURVE",
"518 260 OFFCURVE",
"593 260 CURVE SMOOTH",
"667 260 OFFCURVE",
"745 304 OFFCURVE",
"745 408 CURVE SMOOTH",
"745 491 OFFCURVE",
"696 543 OFFCURVE",
"630 586 CURVE",
"650 605 OFFCURVE",
"673 625 OFFCURVE",
"717 661 CURVE",
"666 716 LINE",
"644 698 OFFCURVE",
"619 676 OFFCURVE",
"561 621 CURVE",
"492 650 OFFCURVE",
"419 659 OFFCURVE",
"357 659 CURVE SMOOTH",
"59 659 LINE",
"59 586 LINE",
"188 493 OFFCURVE",
"297 347 OFFCURVE",
"297 213 CURVE SMOOTH",
"297 138 OFFCURVE",
"263 72 OFFCURVE",
"190 72 CURVE SMOOTH",
"157 72 OFFCURVE",
"120 92 OFFCURVE",
"91 132 CURVE",
"30 79 LINE",
"69 30 OFFCURVE",
"123 -3 OFFCURVE",
"194 -3 CURVE SMOOTH"
);
},
{
closed = 1;
nodes = (
"539 325 OFFCURVE",
"514 363 OFFCURVE",
"514 416 CURVE SMOOTH",
"514 458 OFFCURVE",
"540 501 OFFCURVE",
"576 539 CURVE",
"627 511 OFFCURVE",
"669 466 OFFCURVE",
"669 408 CURVE SMOOTH",
"669 352 OFFCURVE",
"633 325 OFFCURVE",
"593 325 CURVE SMOOTH"
);
}
);
width = 785;
}
);
unicode = ABC7;
},
{
glyphname = uniABC8;
lastChange = "2017-12-08 18:54:54 +0000";
layers = (
{
layerId = UUID0;
paths = (
{
closed = 1;
nodes = (
"167 24 OFFCURVE",
"239 94 OFFCURVE",
"266 201 CURVE SMOOTH",
"301 340 OFFCURVE",
"353 382 OFFCURVE",
"422 382 CURVE SMOOTH",
"475 382 OFFCURVE",
"509 350 OFFCURVE",
"509 306 CURVE SMOOTH",
"509 292 OFFCURVE",
"492 208 OFFCURVE",
"492 184 CURVE SMOOTH",
"492 112 OFFCURVE",
"543 80 OFFCURVE",
"597 80 CURVE SMOOTH",
"627 80 OFFCURVE",
"661 90 OFFCURVE",
"688 117 CURVE",
"638 170 LINE",
"626 158 OFFCURVE",
"612 153 OFFCURVE",
"601 153 CURVE SMOOTH",
"583 153 OFFCURVE",
"572 163 OFFCURVE",
"572 184 CURVE SMOOTH",
"572 222 OFFCURVE",
"591 265 OFFCURVE",
"591 306 CURVE SMOOTH",
"591 406 OFFCURVE",
"508 453 OFFCURVE",
"425 453 CURVE SMOOTH",
"351 453 OFFCURVE",
"296 425 OFFCURVE",
"258 345 CURVE",
"243 430 OFFCURVE",
"188 515 OFFCURVE",
"129 586 CURVE",
"694 586 LINE",
"694 659 LINE",
"34 659 LINE",
"34 586 LINE",
"132 495 OFFCURVE",
"193 367 OFFCURVE",
"193 274 CURVE SMOOTH",
"193 181 OFFCURVE",
"149 102 OFFCURVE",
"29 72 CURVE",
"52 0 LINE"
);
}
);
width = 734;
}
);
unicode = ABC8;
},
{
glyphname = uniABC9;
lastChange = "2017-12-08 18:54:54 +0000";
layers = (
{
layerId = UUID0;
paths = (
{
closed = 1;
nodes = (
"804 0 LINE",
"804 587 LINE",
"841 587 LINE",
"841 659 LINE",
"308 659 LINE",
"308 72 LINE",
"213 72 LINE",
"241 103 OFFCURVE",
"260 143 OFFCURVE",
"260 189 CURVE SMOOTH",
"260 289 OFFCURVE",
"191 333 OFFCURVE",
"103 333 CURVE SMOOTH",
"70 333 OFFCURVE",
"38 326 OFFCURVE",
"20 318 CURVE",
"46 250 LINE",
"59 255 OFFCURVE",
"79 261 OFFCURVE",
"101 261 CURVE SMOOTH",
"153 261 OFFCURVE",
"182 228 OFFCURVE",
"182 178 CURVE SMOOTH",
"182 131 OFFCURVE",
"149 85 OFFCURVE",
"85 72 CURVE",
"85 0 LINE"
);
},
{
closed = 1;
nodes = (
"394 587 LINE",
"518 587 LINE",
"518 72 LINE",
"394 72 LINE"
);
},
{
closed = 1;
nodes = (
"598 587 LINE",
"723 587 LINE",
"723 72 LINE",
"598 72 LINE"
);
}
);
width = 896;
}
);
rightMetricsKey = uniABE1;
unicode = ABC9;
},
{
glyphname = uniABCA;
lastChange = "2017-12-08 18:54:54 +0000";
layers = (
{
layerId = UUID0;
paths = (
{
closed = 1;
nodes = (
"262 -3 OFFCURVE",
"313 20 OFFCURVE",
"346 67 CURVE",
"374 17 OFFCURVE",
"422 -3 OFFCURVE",
"473 -3 CURVE SMOOTH",
"576 -3 OFFCURVE",
"629 60 OFFCURVE",
"629 147 CURVE SMOOTH",
"629 244 OFFCURVE",
"547 278 OFFCURVE",
"505 287 CURVE",
"490 212 LINE",
"510 208 OFFCURVE",
"550 193 OFFCURVE",
"550 147 CURVE SMOOTH",
"550 102 OFFCURVE",
"523 69 OFFCURVE",
"472 69 CURVE SMOOTH",
"426 69 OFFCURVE",
"385 96 OFFCURVE",
"385 161 CURVE SMOOTH",
"385 640 LINE",
"305 640 LINE",
"305 161 LINE SMOOTH",
"305 98 OFFCURVE",
"264 69 OFFCURVE",
"220 69 CURVE SMOOTH",
"166 69 OFFCURVE",
"141 101 OFFCURVE",
"141 147 CURVE SMOOTH",
"141 192 OFFCURVE",
"178 208 OFFCURVE",
"198 212 CURVE",
"184 287 LINE",
"142 278 OFFCURVE",
"62 244 OFFCURVE",
"62 147 CURVE SMOOTH",
"62 60 OFFCURVE",
"113 -3 OFFCURVE",
"217 -3 CURVE SMOOTH"
);
},
{
closed = 1;
nodes = (
"631 585 LINE",
"631 659 LINE",
"42 659 LINE",
"42 585 LINE"
);
}
);
width = 675;
}
);
unicode = ABCA;
},
{
glyphname = uniABCB;
lastChange = "2017-12-08 18:54:54 +0000";
layers = (
{
layerId = UUID0;
paths = (
{
closed = 1;
nodes = (
"153 18 OFFCURVE",
"283 88 OFFCURVE",
"283 275 CURVE SMOOTH",
"283 385 OFFCURVE",
"236 488 OFFCURVE",
"152 586 CURVE",
"677 586 LINE",
"597 497 OFFCURVE",
"540 400 OFFCURVE",
"540 281 CURVE SMOOTH",
"540 274 OFFCURVE",
"540 269 OFFCURVE",
"541 260 CURVE",
"503 307 OFFCURVE",
"467 361 OFFCURVE",
"433 414 CURVE",
"366 367 LINE",
"450 244 OFFCURVE",
"590 43 OFFCURVE",
"767 0 CURVE",
"790 73 LINE",
"670 104 OFFCURVE",
"618 186 OFFCURVE",
"618 271 CURVE SMOOTH",
"618 370 OFFCURVE",
"673 483 OFFCURVE",
"780 588 CURVE",
"780 659 LINE",
"45 659 LINE",
"45 588 LINE",
"141 497 OFFCURVE",
"201 377 OFFCURVE",
"201 281 CURVE SMOOTH",
"201 193 OFFCURVE",
"158 107 OFFCURVE",
"30 80 CURVE",
"52 0 LINE"
);
}
);
width = 820;
}
);
unicode = ABCB;
},
{
glyphname = uniABCC;
lastChange = "2017-12-08 18:54:54 +0000";
layers = (
{
layerId = UUID0;
paths = (
{
closed = 1;
nodes = (
"344 228 LINE",
"344 311 LINE",
"328 311 LINE SMOOTH",
"227 311 OFFCURVE",
"159 356 OFFCURVE",
"159 449 CURVE SMOOTH",
"159 537 OFFCURVE",
"228 586 OFFCURVE",
"352 586 CURVE SMOOTH",
"456 586 LINE SMOOTH",
"580 586 OFFCURVE",
"654 536 OFFCURVE",
"654 446 CURVE SMOOTH",
"654 356 OFFCURVE",
"580 311 OFFCURVE",
"481 311 CURVE SMOOTH",
"467 311 LINE",
"467 232 LINE",
"586 72 LINE SMOOTH",
"623 22 OFFCURVE",
"666 -5 OFFCURVE",
"708 -5 CURVE SMOOTH",
"726 -5 OFFCURVE",
"744 -4 OFFCURVE",
"765 4 CURVE",
"750 78 LINE",
"736 73 OFFCURVE",
"723 70 OFFCURVE",
"715 70 CURVE SMOOTH",
"686 70 OFFCURVE",
"666 93 OFFCURVE",
"641 124 CURVE SMOOTH",
"543 248 LINE",
"653 264 OFFCURVE",
"735 339 OFFCURVE",
"735 439 CURVE SMOOTH",
"735 506 OFFCURVE",
"697 563 OFFCURVE",
"647 586 CURVE",
"767 586 LINE",
"767 659 LINE",
"50 659 LINE",
"50 586 LINE",
"162 586 LINE",
"112 564 OFFCURVE",
"77 509 OFFCURVE",
"77 445 CURVE SMOOTH",
"77 319 OFFCURVE",
"179 261 OFFCURVE",
"264 248 CURVE",
"68 52 LINE",
"129 -5 LINE"
);
}
);
width = 817;
}
);
unicode = ABCC;
},
{
glyphname = uniABCD;
lastChange = "2018-03-02 15:33:55 +0000";
layers = (
{
layerId = UUID0;
paths = (
{
closed = 1;
nodes = (
"207 0 OFFCURVE",
"290 57 OFFCURVE",
"337 252 CURVE SMOOTH",
"375 411 OFFCURVE",
"434 454 OFFCURVE",
"494 454 CURVE SMOOTH",
"544 454 OFFCURVE",
"581 419 OFFCURVE",
"581 349 CURVE SMOOTH",
"581 279 OFFCURVE",
"549 245 OFFCURVE",
"514 245 CURVE SMOOTH",
"481 245 OFFCURVE",
"454 255 OFFCURVE",
"437 264 CURVE",
"408 200 LINE",
"435 186 OFFCURVE",
"468 176 OFFCURVE",
"514 176 CURVE SMOOTH",
"581 176 OFFCURVE",
"658 223 OFFCURVE",
"658 351 CURVE SMOOTH",
"658 481 OFFCURVE",
"573 524 OFFCURVE",
"495 524 CURVE SMOOTH",
"414 524 OFFCURVE",
"319 468 OFFCURVE",
"271 287 CURVE SMOOTH",
"224 111 OFFCURVE",
"180 72 OFFCURVE",
"87 72 CURVE SMOOTH",
"80 72 OFFCURVE",
"76 72 OFFCURVE",
"65 73 CURVE",
"57 2 LINE",
"71 0 OFFCURVE",
"86 0 OFFCURVE",
"99 0 CURVE SMOOTH"
);
},
{
closed = 1;
nodes = (
"681 586 LINE",
"681 659 LINE",
"40 659 LINE",
"40 586 LINE"
);
}
);
width = 721;
}
);
unicode = ABCD;
},
{
glyphname = uniABCE;
lastChange = "2017-12-08 18:54:54 +0000";
layers = (
{
layerId = UUID0;
paths = (
{
closed = 1;
nodes = (
"196 0 LINE",
"197 43 OFFCURVE",
"215 99 OFFCURVE",
"288 99 CURVE SMOOTH",
"344 99 OFFCURVE",
"370 54 OFFCURVE",
"372 0 CURVE",
"454 0 LINE",
"455 50 OFFCURVE",
"466 96 OFFCURVE",
"526 96 CURVE SMOOTH",
"573 96 OFFCURVE",
"590 54 OFFCURVE",
"592 0 CURVE",
"679 0 LINE",
"699 27 OFFCURVE",
"720 72 OFFCURVE",
"720 120 CURVE SMOOTH",
"720 166 OFFCURVE",
"708 204 OFFCURVE",
"640 290 CURVE",
"699 327 OFFCURVE",
"734 367 OFFCURVE",
"734 426 CURVE SMOOTH",
"734 494 OFFCURVE",
"675 534 OFFCURVE",
"605 534 CURVE SMOOTH",
"530 534 OFFCURVE",
"476 494 OFFCURVE",
"476 427 CURVE SMOOTH",
"476 392 OFFCURVE",
"497 353 OFFCURVE",
"527 320 CURVE",
"495 311 OFFCURVE",
"454 307 OFFCURVE",
"419 307 CURVE SMOOTH",
"257 307 OFFCURVE",
"158 385 OFFCURVE",
"157 534 CURVE SMOOTH",
"157 555 OFFCURVE",
"158 573 OFFCURVE",
"159 586 CURVE",
"737 586 LINE",
"737 659 LINE",
"50 659 LINE",
"50 586 LINE",
"78 586 LINE",
"76 570 OFFCURVE",
"75 551 OFFCURVE",
"75 530 CURVE SMOOTH",
"76 351 OFFCURVE",
"204 235 OFFCURVE",
"420 235 CURVE SMOOTH",
"473 235 OFFCURVE",
"526 244 OFFCURVE",
"570 261 CURVE",
"631 188 OFFCURVE",
"648 144 OFFCURVE",
"648 120 CURVE SMOOTH",
"648 105 OFFCURVE",
"645 89 OFFCURVE",
"640 76 CURVE",
"620 146 OFFCURVE",
"569 167 OFFCURVE",
"526 167 CURVE SMOOTH",
"469 167 OFFCURVE",
"426 136 OFFCURVE",
"413 87 CURVE",
"394 146 OFFCURVE",
"339 170 OFFCURVE",
"281 170 CURVE SMOOTH",
"135 170 OFFCURVE",
"116 40 OFFCURVE",
"114 0 CURVE"
);
},
{
closed = 1;
nodes = (
"570 368 OFFCURVE",
"554 399 OFFCURVE",
"554 420 CURVE SMOOTH",
"554 446 OFFCURVE",
"571 462 OFFCURVE",
"605 462 CURVE SMOOTH",
"638 462 OFFCURVE",
"654 442 OFFCURVE",
"654 418 CURVE SMOOTH",
"654 390 OFFCURVE",
"634 364 OFFCURVE",
"597 343 CURVE"
);
}
);
width = 787;
}
);
unicode = ABCE;
},
{
glyphname = uniABCF;
lastChange = "2017-12-08 18:54:54 +0000";
layers = (
{
layerId = UUID0;
paths = (
{
closed = 1;
nodes = (
"672 -5 OFFCURVE",
"750 53 OFFCURVE",
"750 187 CURVE SMOOTH",
"750 315 OFFCURVE",
"644 367 OFFCURVE",
"516 405 CURVE SMOOTH",
"403 439 OFFCURVE",
"283 465 OFFCURVE",
"218 530 CURVE SMOOTH",
"183 565 OFFCURVE",
"155 601 OFFCURVE",
"124 649 CURVE",
"66 587 LINE",
"170 495 OFFCURVE",
"238 359 OFFCURVE",
"238 263 CURVE SMOOTH",
"238 180 OFFCURVE",
"193 97 OFFCURVE",
"50 78 CURVE",
"73 0 LINE",
"233 25 OFFCURVE",
"319 129 OFFCURVE",
"319 256 CURVE SMOOTH",
"319 301 OFFCURVE",
"307 351 OFFCURVE",
"275 410 CURVE",
"330 377 OFFCURVE",
"403 357 OFFCURVE",
"488 332 CURVE SMOOTH",
"601 299 OFFCURVE",
"668 260 OFFCURVE",
"668 185 CURVE SMOOTH",
"668 112 OFFCURVE",
"634 70 OFFCURVE",
"572 70 CURVE SMOOTH",
"537 70 OFFCURVE",
"505 89 OFFCURVE",
"490 100 CURVE",
"444 38 LINE",
"467 18 OFFCURVE",
"517 -5 OFFCURVE",
"572 -5 CURVE SMOOTH"
);
},
{
closed = 1;
nodes = (
"745 586 LINE",
"745 659 LINE",
"65 659 LINE",
"65 586 LINE"
);
}
);
width = 800;
}
);
unicode = ABCF;
},
{
glyphname = uniABD0;
lastChange = "2017-12-08 18:54:54 +0000";
layers = (
{
layerId = UUID0;
paths = (
{
closed = 1;
nodes = (
"172 11 OFFCURVE",
"228 34 OFFCURVE",
"310 34 CURVE SMOOTH",
"401 34 OFFCURVE",
"449 -2 OFFCURVE",
"547 -2 CURVE SMOOTH",
"629 -2 OFFCURVE",
"678 34 OFFCURVE",
"708 68 CURVE",
"657 125 LINE",
"630 95 OFFCURVE",
"602 72 OFFCURVE",
"547 72 CURVE SMOOTH",
"449 72 OFFCURVE",
"406 108 OFFCURVE",
"308 108 CURVE SMOOTH",
"271 108 OFFCURVE",
"236 101 OFFCURVE",
"202 92 CURVE",
"226 145 OFFCURVE",
"247 213 OFFCURVE",
"247 291 CURVE SMOOTH",
"247 296 OFFCURVE",
"247 302 OFFCURVE",
"246 307 CURVE",
"267 315 OFFCURVE",
"297 324 OFFCURVE",
"333 324 CURVE SMOOTH",
"401 324 OFFCURVE",
"451 296 OFFCURVE",
"508 296 CURVE SMOOTH",
"565 296 OFFCURVE",
"611 311 OFFCURVE",
"654 342 CURVE",
"620 409 LINE",
"585 382 OFFCURVE",
"543 368 OFFCURVE",
"508 368 CURVE SMOOTH",
"455 368 OFFCURVE",
"398 398 OFFCURVE",
"333 398 CURVE SMOOTH",
"293 398 OFFCURVE",
"261 389 OFFCURVE",
"236 380 CURVE",
"216 463 OFFCURVE",
"174 541 OFFCURVE",
"147 586 CURVE",
"680 586 LINE",
"680 659 LINE",
"50 659 LINE",
"50 586 LINE",
"86 543 OFFCURVE",
"161 427 OFFCURVE",
"161 290 CURVE SMOOTH",
"161 173 OFFCURVE",
"103 73 OFFCURVE",
"71 23 CURVE",
"97 8 OFFCURVE",
"115 -1 OFFCURVE",
"140 -13 CURVE"
);
}
);
width = 758;
}
);
unicode = ABD0;
},
{
glyphname = uniABD1;
lastChange = "2017-12-08 18:54:54 +0000";
layers = (
{
layerId = UUID0;
paths = (
{
closed = 1;
nodes = (
"573 -4 OFFCURVE",
"674 27 OFFCURVE",
"762 87 CURVE",
"714 151 LINE",
"627 88 OFFCURVE",
"544 70 OFFCURVE",
"455 70 CURVE SMOOTH",
"317 70 OFFCURVE",
"147 137 OFFCURVE",
"147 377 CURVE SMOOTH",
"147 483 OFFCURVE",
"177 581 OFFCURVE",
"199 626 CURVE",
"115 650 LINE",
"112 645 OFFCURVE",
"63 542 OFFCURVE",
"63 377 CURVE SMOOTH",
"63 78 OFFCURVE",
"291 -4 OFFCURVE",
"456 -4 CURVE SMOOTH"
);
},
{
closed = 1;
nodes = (
"390 40 LINE",
"390 640 LINE",
"308 640 LINE",
"308 40 LINE"
);
},
{
closed = 1;
nodes = (
"590 48 LINE",
"590 640 LINE",
"508 640 LINE",
"508 48 LINE"
);
},
{
closed = 1;
nodes = (
"752 586 LINE",
"752 659 LINE",
"50 659 LINE",
"50 586 LINE"
);
}
);
width = 792;
}
);
unicode = ABD1;
},
{
glyphname = uniABD2;
lastChange = "2017-12-08 18:54:54 +0000";
layers = (
{
layerId = UUID0;
paths = (
{
closed = 1;
nodes = (
"198 0 LINE",
"198 586 LINE",
"315 586 LINE",
"315 0 LINE",
"398 0 LINE",
"398 586 LINE",
"505 586 LINE",
"505 393 LINE SMOOTH",
"505 333 OFFCURVE",
"524 255 OFFCURVE",
"636 255 CURVE SMOOTH",
"723 255 OFFCURVE",
"761 319 OFFCURVE",
"772 395 CURVE",
"696 415 LINE",
"688 344 OFFCURVE",
"667 326 OFFCURVE",
"637 326 CURVE SMOOTH",
"595 326 OFFCURVE",
"583 351 OFFCURVE",
"583 388 CURVE SMOOTH",
"583 587 LINE",
"743 587 LINE",
"743 659 LINE",
"55 659 LINE",
"55 586 LINE",
"117 586 LINE",
"117 0 LINE"
);
}
);
width = 802;
}
);
leftMetricsKey = uniABE1;
unicode = ABD2;
},
{
glyphname = uniABD3;
lastChange = "2017-12-08 18:54:54 +0000";
layers = (
{
layerId = UUID0;
paths = (
{
closed = 1;
nodes = (
"497 -7 OFFCURVE",
"549 1 OFFCURVE",
"599 38 CURVE",
"562 101 LINE",
"520 75 OFFCURVE",
"484 67 OFFCURVE",
"458 67 CURVE SMOOTH",
"415 67 OFFCURVE",
"352 90 OFFCURVE",
"352 174 CURVE SMOOTH",
"352 237 OFFCURVE",
"397 284 OFFCURVE",
"471 295 CURVE SMOOTH",
"562 308 LINE",
"538 387 LINE",
"175 332 LINE",
"174 337 LINE",
"586 586 LINE",
"649 586 LINE",
"649 659 LINE",
"40 659 LINE",
"40 586 LINE",
"443 586 LINE",
"84 371 LINE",
"141 251 LINE",
"321 279 LINE",
"288 253 OFFCURVE",
"270 212 OFFCURVE",
"270 166 CURVE SMOOTH",
"270 31 OFFCURVE",
"377 -7 OFFCURVE",
"451 -7 CURVE SMOOTH"
);
}
);
width = 689;
}
);
unicode = ABD3;
},
{
glyphname = uniABD4;
lastChange = "2017-12-08 18:54:54 +0000";
layers = (
{
layerId = UUID0;
paths = (
{
closed = 1;
nodes = (
"551 0 LINE",
"551 472 LINE SMOOTH",
"551 561 OFFCURVE",
"566 605 OFFCURVE",
"632 605 CURVE SMOOTH",
"687 605 OFFCURVE",
"707 552 OFFCURVE",
"708 449 CURVE",
"789 460 LINE",
"787 590 OFFCURVE",
"742 681 OFFCURVE",
"635 681 CURVE SMOOTH",
"557 681 OFFCURVE",
"512 639 OFFCURVE",
"497 580 CURVE",
"455 645 OFFCURVE",
"401 672 OFFCURVE",
"314 672 CURVE SMOOTH",
"136 672 OFFCURVE",
"80 545 OFFCURVE",
"80 418 CURVE SMOOTH",
"80 0 LINE"
);
},
{
closed = 1;
nodes = (
"163 282 LINE",
"469 282 LINE",
"469 71 LINE",
"163 71 LINE"
);
},
{
closed = 1;
nodes = (
"163 431 LINE SMOOTH",
"163 515 OFFCURVE",
"200 596 OFFCURVE",
"315 596 CURVE SMOOTH",
"431 596 OFFCURVE",
"469 517 OFFCURVE",
"469 440 CURVE SMOOTH",
"469 353 LINE",
"163 353 LINE"
);
}
);
width = 819;
}
);
unicode = ABD4;
},
{
glyphname = uniABD5;
lastChange = "2017-12-08 18:54:54 +0000";
layers = (
{
layerId = UUID0;
paths = (
{
closed = 1;
nodes = (
"433 -9 OFFCURVE",
"547 35 OFFCURVE",
"547 176 CURVE SMOOTH",
"547 262 OFFCURVE",
"480 330 OFFCURVE",
"400 405 CURVE",
"508 501 OFFCURVE",
"654 580 OFFCURVE",
"666 586 CURVE",
"666 659 LINE",
"30 659 LINE",
"30 586 LINE",
"55 573 OFFCURVE",
"195 495 OFFCURVE",
"296 406 CURVE",
"218 331 OFFCURVE",
"150 261 OFFCURVE",
"150 176 CURVE SMOOTH",
"150 35 OFFCURVE",
"263 -9 OFFCURVE",
"349 -9 CURVE SMOOTH"
);
},
{
closed = 1;
nodes = (
"292 62 OFFCURVE",
"237 100 OFFCURVE",
"237 179 CURVE SMOOTH",
"237 237 OFFCURVE",
"273 295 OFFCURVE",
"349 349 CURVE",
"415 296 OFFCURVE",
"460 236 OFFCURVE",
"460 179 CURVE SMOOTH",
"460 100 OFFCURVE",
"403 62 OFFCURVE",
"349 62 CURVE SMOOTH"
);
},
{
closed = 1;
nodes = (
"284 507 OFFCURVE",
"218 551 OFFCURVE",
"160 586 CURVE",
"536 586 LINE",
"471 548 OFFCURVE",
"411 508 OFFCURVE",
"349 453 CURVE"
);
}
);
width = 696;
}
);
unicode = ABD5;
},
{
glyphname = uniABD6;
lastChange = "2017-12-08 18:54:54 +0000";
layers = (
{
layerId = UUID0;
paths = (
{
closed = 1;
nodes = (
"437 -9 OFFCURVE",
"494 38 OFFCURVE",
"534 74 CURVE",
"484 137 LINE",
"446 100 OFFCURVE",
"402 68 OFFCURVE",
"343 68 CURVE SMOOTH",
"281 68 OFFCURVE",
"214 105 OFFCURVE",
"214 208 CURVE SMOOTH",
"214 373 OFFCURVE",
"420 492 OFFCURVE",
"596 587 CURVE",
"596 659 LINE",
"20 659 LINE",
"20 586 LINE",
"451 586 LINE",
"300 505 OFFCURVE",
"127 385 OFFCURVE",
"127 206 CURVE SMOOTH",
"127 61 OFFCURVE",
"217 -9 OFFCURVE",
"343 -9 CURVE SMOOTH"
);
}
);
width = 626;
}
);
unicode = ABD6;
},
{
glyphname = uniABD7;
lastChange = "2017-12-08 18:54:54 +0000";
layers = (
{
layerId = UUID0;
paths = (
{
closed = 1;
nodes = (
"322 -3 OFFCURVE",
"424 44 OFFCURVE",
"424 187 CURVE SMOOTH",
"424 249 OFFCURVE",
"398 310 OFFCURVE",
"346 381 CURVE",
"420 411 OFFCURVE",
"502 433 OFFCURVE",
"580 449 CURVE",
"537 379 OFFCURVE",
"505 296 OFFCURVE",
"505 214 CURVE SMOOTH",
"505 69 OFFCURVE",
"601 5 OFFCURVE",
"706 5 CURVE SMOOTH",
"718 5 OFFCURVE",
"732 5 OFFCURVE",
"743 7 CURVE",
"733 82 LINE",
"724 81 OFFCURVE",
"715 80 OFFCURVE",
"706 80 CURVE SMOOTH",
"633 81 OFFCURVE",
"587 124 OFFCURVE",
"587 217 CURVE SMOOTH",
"587 265 OFFCURVE",
"603 359 OFFCURVE",
"665 443 CURVE",
"583 523 LINE",
"476 500 OFFCURVE",
"375 473 OFFCURVE",
"296 440 CURVE",
"260 481 OFFCURVE",
"207 533 OFFCURVE",
"152 586 CURVE",
"720 586 LINE",
"720 659 LINE",
"40 659 LINE",
"40 586 LINE",
"125 516 OFFCURVE",
"178 458 OFFCURVE",
"226 406 CURVE",
"123 347 OFFCURVE",
"61 273 OFFCURVE",
"61 175 CURVE SMOOTH",
"61 55 OFFCURVE",
"156 -3 OFFCURVE",
"236 -3 CURVE SMOOTH"
);
},
{
closed = 1;
nodes = (
"185 74 OFFCURVE",
"143 110 OFFCURVE",
"143 173 CURVE SMOOTH",
"143 245 OFFCURVE",
"197 302 OFFCURVE",
"274 346 CURVE",
"318 289 OFFCURVE",
"343 238 OFFCURVE",
"343 188 CURVE SMOOTH",
"343 102 OFFCURVE",
"292 74 OFFCURVE",
"240 74 CURVE SMOOTH"
);
}
);
width = 773;
}
);
unicode = ABD7;
},
{
glyphname = uniABD8;
lastChange = "2017-12-08 18:54:54 +0000";
layers = (
{
layerId = UUID0;
paths = (
{
closed = 1;
nodes = (
"702 5 OFFCURVE",
"727 12 OFFCURVE",
"752 21 CURVE",
"723 90 LINE",
"710 84 OFFCURVE",
"691 80 OFFCURVE",
"677 80 CURVE SMOOTH",
"642 80 OFFCURVE",
"592 98 OFFCURVE",
"592 163 CURVE SMOOTH",
"592 235 OFFCURVE",
"654 261 OFFCURVE",
"713 262 CURVE",
"713 335 LINE",
"389 335 LINE",
"389 586 LINE",
"732 586 LINE",
"732 659 LINE",
"40 659 LINE",
"40 586 LINE",
"306 586 LINE",
"306 335 LINE",
"249 335 LINE SMOOTH",
"70 335 OFFCURVE",
"47 230 OFFCURVE",
"47 175 CURVE SMOOTH",
"47 100 OFFCURVE",
"103 8 OFFCURVE",
"215 8 CURVE SMOOTH",
"336 8 OFFCURVE",
"389 87 OFFCURVE",
"389 197 CURVE SMOOTH",
"389 262 LINE",
"562 262 LINE",
"530 235 OFFCURVE",
"513 196 OFFCURVE",
"513 157 CURVE SMOOTH",
"513 56 OFFCURVE",
"582 6 OFFCURVE",
"669 5 CURVE SMOOTH"
);
},
{
closed = 1;
nodes = (
"162 83 OFFCURVE",
"129 123 OFFCURVE",
"129 174 CURVE SMOOTH",
"129 211 OFFCURVE",
"152 262 OFFCURVE",
"242 262 CURVE SMOOTH",
"306 262 LINE",
"306 206 LINE SMOOTH",
"306 117 OFFCURVE",
"266 83 OFFCURVE",
"213 83 CURVE SMOOTH"
);
}
);
width = 792;
}
);
unicode = ABD8;
},
{
glyphname = uniABD9;
lastChange = "2017-12-08 18:54:54 +0000";
layers = (
{
layerId = UUID0;
paths = (
{
closed = 1;
nodes = (
"274 -3 OFFCURVE",
"315 35 OFFCURVE",
"343 77 CURVE",
"343 0 LINE",
"424 0 LINE",
"424 585 LINE",
"598 585 LINE",
"598 659 LINE",
"40 659 LINE",
"40 585 LINE",
"343 585 LINE",
"343 177 LINE",
"317 119 OFFCURVE",
"264 72 OFFCURVE",
"208 72 CURVE SMOOTH",
"149 72 OFFCURVE",
"125 114 OFFCURVE",
"125 160 CURVE SMOOTH",
"125 212 OFFCURVE",
"153 241 OFFCURVE",
"194 264 CURVE",
"156 333 LINE",
"97 302 OFFCURVE",
"44 256 OFFCURVE",
"44 160 CURVE SMOOTH",
"44 66 OFFCURVE",
"105 -3 OFFCURVE",
"201 -3 CURVE SMOOTH"
);
}
);
width = 628;
}
);
unicode = ABD9;
},
{
glyphname = uniABDA;
lastChange = "2017-12-08 18:54:54 +0000";
layers = (
{
layerId = UUID0;
paths = (
{
closed = 1;
nodes = (
"574 0 LINE",
"574 586 LINE",
"603 586 LINE",
"603 659 LINE",
"44 659 LINE",
"44 586 LINE",
"220 586 LINE",
"220 341 LINE SMOOTH",
"220 307 OFFCURVE",
"204 281 OFFCURVE",
"170 281 CURVE SMOOTH",
"136 281 OFFCURVE",
"115 295 OFFCURVE",
"98 362 CURVE",
"23 337 LINE",
"43 255 OFFCURVE",
"88 205 OFFCURVE",
"173 205 CURVE SMOOTH",
"276 205 OFFCURVE",
"300 285 OFFCURVE",
"300 342 CURVE SMOOTH",
"300 586 LINE",
"493 586 LINE",
"493 0 LINE"
);
}
);
width = 658;
}
);
rightMetricsKey = uniABE1;
unicode = ABDA;
},
{
glyphname = uniABDB;
lastChange = "2017-12-08 18:54:54 +0000";
layers = (
{
layerId = UUID0;
paths = (
{
closed = 1;
nodes = (
"585 0 LINE",
"585 585 LINE",
"709 585 LINE",
"709 359 LINE",
"790 359 LINE",
"790 585 LINE",
"824 585 LINE",
"824 659 LINE",
"55 659 LINE",
"55 585 LINE",
"89 585 LINE",
"89 0 LINE"
);
},
{
closed = 1;
nodes = (
"171 585 LINE",
"298 585 LINE",
"298 70 LINE",
"171 70 LINE"
);
},
{
closed = 1;
nodes = (
"381 585 LINE",
"504 585 LINE",
"504 70 LINE",
"381 70 LINE"
);
}
);
width = 879;
}
);
leftMetricsKey = uniABE1;
rightMetricsKey = uniABE1;
unicode = ABDB;
},
{
glyphname = uniABDC;
lastChange = "2017-12-08 18:54:54 +0000";
layers = (
{
layerId = UUID0;
paths = (
{
closed = 1;
nodes = (
"469 0 LINE",
"469 586 LINE",
"503 586 LINE",
"503 659 LINE",
"40 659 LINE",
"40 586 LINE",
"389 586 LINE",
"389 302 LINE",
"385 302 LINE",
"321 421 OFFCURVE",
"208 435 OFFCURVE",
"108 435 CURVE SMOOTH",
"73 435 LINE",
"73 362 LINE",
"108 362 LINE SMOOTH",
"279 362 OFFCURVE",
"389 268 OFFCURVE",
"389 39 CURVE SMOOTH",
"389 0 LINE"
);
}
);
width = 558;
}
);
rightMetricsKey = uniABE1;
unicode = ABDC;
},
{
glyphname = uniABDD;
lastChange = "2017-12-08 18:54:54 +0000";
layers = (
{
layerId = UUID0;
paths = (
{
closed = 1;
nodes = (
"170 0 LINE",
"170 272 LINE",
"310 272 LINE",
"310 0 LINE",
"391 0 LINE",
"391 272 LINE",
"542 272 LINE",
"542 343 LINE",
"391 343 LINE",
"391 585 LINE",
"574 585 LINE",
"574 659 LINE",
"55 659 LINE",
"55 585 LINE",
"89 585 LINE",
"89 0 LINE"
);
},
{
closed = 1;
nodes = (
"170 585 LINE",
"310 585 LINE",
"310 343 LINE",
"170 343 LINE"
);
}
);
width = 614;
}
);
leftMetricsKey = uniABE1;
unicode = ABDD;
},
{
glyphname = uniABDE;
lastChange = "2017-12-08 18:54:54 +0000";
layers = (
{
layerId = UUID0;
paths = (
{
closed = 1;
nodes = (
"208 26 OFFCURVE",
"280 149 OFFCURVE",
"280 272 CURVE SMOOTH",
"280 373 OFFCURVE",
"232 486 OFFCURVE",
"150 586 CURVE",
"370 586 LINE",
"370 0 LINE",
"451 0 LINE",
"451 586 LINE",
"672 586 LINE",
"589 486 OFFCURVE",
"540 373 OFFCURVE",
"540 272 CURVE SMOOTH",
"540 148 OFFCURVE",
"614 26 OFFCURVE",
"768 0 CURVE",
"790 73 LINE",
"662 100 OFFCURVE",
"623 198 OFFCURVE",
"623 285 CURVE SMOOTH",
"623 377 OFFCURVE",
"681 494 OFFCURVE",
"774 586 CURVE",
"774 659 LINE",
"45 659 LINE",
"45 586 LINE",
"147 494 OFFCURVE",
"199 381 OFFCURVE",
"199 285 CURVE SMOOTH",
"199 198 OFFCURVE",
"159 100 OFFCURVE",
"30 73 CURVE",
"53 0 LINE"
);
}
);
width = 820;
}
);
unicode = ABDE;
},
{
glyphname = uniABDF;
lastChange = "2017-12-08 18:54:54 +0000";
layers = (
{
layerId = UUID0;
paths = (
{
closed = 1;
nodes = (
"517 -4 OFFCURVE",
"626 35 OFFCURVE",
"718 98 CURVE",
"670 157 LINE",
"583 94 OFFCURVE",
"494 70 OFFCURVE",
"404 70 CURVE SMOOTH",
"268 70 OFFCURVE",
"157 147 OFFCURVE",
"157 322 CURVE SMOOTH",
"157 431 OFFCURVE",
"184 533 OFFCURVE",
"201 586 CURVE",
"302 586 LINE",
"286 535 OFFCURVE",
"265 456 OFFCURVE",
"265 394 CURVE SMOOTH",
"265 262 OFFCURVE",
"342 204 OFFCURVE",
"443 204 CURVE SMOOTH",
"495 204 OFFCURVE",
"564 222 OFFCURVE",
"618 258 CURVE",
"573 319 LINE",
"537 294 OFFCURVE",
"487 278 OFFCURVE",
"449 278 CURVE SMOOTH",
"387 278 OFFCURVE",
"345 316 OFFCURVE",
"345 393 CURVE SMOOTH",
"345 455 OFFCURVE",
"376 551 OFFCURVE",
"388 586 CURVE",
"595 586 LINE",
"514 438 LINE",
"587 412 LINE",
"678 586 LINE",
"739 586 LINE",
"739 659 LINE",
"50 659 LINE",
"50 586 LINE",
"112 586 LINE",
"94 523 OFFCURVE",
"72 423 OFFCURVE",
"72 322 CURVE SMOOTH",
"72 99 OFFCURVE",
"240 -4 OFFCURVE",
"397 -4 CURVE SMOOTH"
);
}
);
width = 769;
}
);
unicode = ABDF;
},
{
glyphname = uniABE0;
lastChange = "2017-12-08 18:54:54 +0000";
layers = (
{
layerId = UUID0;
paths = (
{
closed = 1;
nodes = (
"531 -3 OFFCURVE",
"626 55 OFFCURVE",
"626 175 CURVE SMOOTH",
"626 281 OFFCURVE",
"552 348 OFFCURVE",
"437 386 CURVE",
"487 452 OFFCURVE",
"564 534 OFFCURVE",
"643 614 CURVE",
"588 665 LINE",
"495 569 OFFCURVE",
"406 473 OFFCURVE",
"356 406 CURVE",
"286 421 OFFCURVE",
"206 424 OFFCURVE",
"121 424 CURVE",
"248 627 LINE",
"176 667 LINE",
"20 408 LINE",
"74 347 LINE",
"101 349 OFFCURVE",
"126 350 OFFCURVE",
"150 350 CURVE SMOOTH",
"210 350 OFFCURVE",
"264 347 OFFCURVE",
"314 340 CURVE",
"280 284 OFFCURVE",
"263 231 OFFCURVE",
"263 181 CURVE SMOOTH",
"263 41 OFFCURVE",
"366 -3 OFFCURVE",
"452 -3 CURVE SMOOTH"
);
},
{
closed = 1;
nodes = (
"396 74 OFFCURVE",
"346 100 OFFCURVE",
"346 182 CURVE SMOOTH",
"346 226 OFFCURVE",
"361 270 OFFCURVE",
"393 321 CURVE",
"485 295 OFFCURVE",
"545 248 OFFCURVE",
"545 173 CURVE SMOOTH",
"545 110 OFFCURVE",
"502 74 OFFCURVE",
"448 74 CURVE SMOOTH"
);
}
);
width = 683;
}
);
unicode = ABE0;
},
{
glyphname = uniABE1;
lastChange = "2017-12-08 18:54:54 +0000";
layers = (
{
layerId = UUID0;
paths = (
{
closed = 1;
nodes = (
"585 0 LINE",
"585 585 LINE",
"623 585 LINE",
"623 659 LINE",
"55 659 LINE",
"55 585 LINE",
"89 585 LINE",
"89 0 LINE"
);
},
{
closed = 1;
nodes = (
"173 585 LINE",
"297 585 LINE",
"297 70 LINE",
"173 70 LINE"
);
},
{
closed = 1;
nodes = (
"378 585 LINE",
"502 585 LINE",
"502 70 LINE",
"378 70 LINE"
);
}
);
width = 678;
}
);
unicode = ABE1;
},
{
glyphname = uniABE2;
lastChange = "2017-12-08 18:54:54 +0000";
layers = (
{
layerId = UUID0;
paths = (
{
closed = 1;
nodes = (
"213 25 OFFCURVE",
"299 129 OFFCURVE",
"299 256 CURVE SMOOTH",
"299 267 OFFCURVE",
"298 279 OFFCURVE",
"297 290 CURVE",
"339 300 OFFCURVE",
"392 310 OFFCURVE",
"446 310 CURVE SMOOTH",
"546 310 OFFCURVE",
"646 290 OFFCURVE",
"646 176 CURVE SMOOTH",
"646 119 OFFCURVE",
"611 90 OFFCURVE",
"572 90 CURVE SMOOTH",
"532 90 OFFCURVE",
"505 111 OFFCURVE",
"494 178 CURVE",
"414 158 LINE",
"429 44 OFFCURVE",
"507 17 OFFCURVE",
"572 17 CURVE SMOOTH",
"633 17 OFFCURVE",
"727 57 OFFCURVE",
"727 179 CURVE SMOOTH",
"727 349 OFFCURVE",
"584 382 OFFCURVE",
"443 382 CURVE SMOOTH",
"387 382 OFFCURVE",
"328 371 OFFCURVE",
"281 361 CURVE",
"257 436 OFFCURVE",
"210 515 OFFCURVE",
"148 586 CURVE",
"726 586 LINE",
"726 659 LINE",
"45 659 LINE",
"45 586 LINE",
"156 489 OFFCURVE",
"218 358 OFFCURVE",
"218 263 CURVE SMOOTH",
"218 180 OFFCURVE",
"173 97 OFFCURVE",
"30 78 CURVE",
"53 0 LINE"
);
}
);
width = 777;
}
);
unicode = ABE2;
},
{
glyphname = uniABE3;
lastChange = "2018-03-02 15:34:35 +0000";
layers = (
{
layerId = UUID0;
paths = (
{
closed = 1;
nodes = (
"179 510 OFFCURVE",
"232 540 OFFCURVE",
"232 607 CURVE SMOOTH",
"232 698 OFFCURVE",
"117 788 OFFCURVE",
"27 841 CURVE",
"-8 786 LINE",
"33 762 OFFCURVE",
"71 739 OFFCURVE",
"93 714 CURVE",
"52 685 OFFCURVE",
"26 655 OFFCURVE",
"26 609 CURVE SMOOTH",
"26 542 OFFCURVE",
"73 510 OFFCURVE",
"128 510 CURVE SMOOTH"
);
},
{
closed = 1;
nodes = (
"105 568 OFFCURVE",
"89 583 OFFCURVE",
"89 609 CURVE SMOOTH",
"89 639 OFFCURVE",
"108 659 OFFCURVE",
"136 677 CURVE",
"154 661 OFFCURVE",
"165 636 OFFCURVE",
"165 612 CURVE SMOOTH",
"165 582 OFFCURVE",
"143 568 OFFCURVE",
"126 568 CURVE SMOOTH"
);
}
);
width = 265;
}
);
unicode = ABE3;
},
{
glyphname = uniABE4;
lastChange = "2017-12-08 18:54:54 +0000";
layers = (
{
layerId = UUID0;
paths = (
{
closed = 1;
nodes = (
"199 0 LINE",
"199 582 LINE",
"292 584 OFFCURVE",
"380 614 OFFCURVE",
"380 720 CURVE SMOOTH",
"380 809 OFFCURVE",
"314 845 OFFCURVE",
"248 845 CURVE SMOOTH",
"163 845 OFFCURVE",
"114 802 OFFCURVE",
"114 713 CURVE SMOOTH",
"114 659 LINE",
"19 659 LINE",
"19 582 LINE",
"114 582 LINE",
"114 0 LINE"
);
},
{
closed = 1;
nodes = (
"199 713 LINE SMOOTH",
"199 759 OFFCURVE",
"215 774 OFFCURVE",
"248 774 CURVE SMOOTH",
"275 774 OFFCURVE",
"296 762 OFFCURVE",
"296 724 CURVE SMOOTH",
"296 675 OFFCURVE",
"258 659 OFFCURVE",
"199 659 CURVE"
);
}
);
width = 399;
}
);
unicode = ABE4;
},
{
glyphname = uniABE5;
lastChange = "2017-12-08 18:54:54 +0000";
layers = (
{
layerId = UUID0;
paths = (
{
closed = 1;
nodes = (
"-77 781 LINE",
"-278 952 LINE",
"-328 887 LINE",
"-121 727 LINE"
);
}
);
width = 0;
}
);
unicode = ABE5;
},
{
glyphname = uniABE6;
lastChange = "2017-12-08 18:54:54 +0000";
layers = (
{
layerId = UUID0;
paths = (
{
closed = 1;
nodes = (
"224 413 OFFCURVE",
"286 463 OFFCURVE",
"286 535 CURVE SMOOTH",
"286 609 OFFCURVE",
"224 662 OFFCURVE",
"148 662 CURVE SMOOTH",
"77 662 OFFCURVE",
"16 609 OFFCURVE",
"16 535 CURVE SMOOTH",
"16 463 OFFCURVE",
"77 413 OFFCURVE",
"148 413 CURVE SMOOTH"
);
},
{
closed = 1;
nodes = (
"115 477 OFFCURVE",
"89 502 OFFCURVE",
"89 538 CURVE SMOOTH",
"89 572 OFFCURVE",
"115 599 OFFCURVE",
"148 599 CURVE SMOOTH",
"184 599 OFFCURVE",
"210 572 OFFCURVE",
"210 538 CURVE SMOOTH",
"210 502 OFFCURVE",
"184 477 OFFCURVE",
"148 477 CURVE SMOOTH"
);
}
);
width = 307;
}
);
unicode = ABE6;
},
{
glyphname = uniABE7;
lastChange = "2017-12-08 18:54:54 +0000";
layers = (
{
layerId = UUID0;
paths = (
{
closed = 1;
nodes = (
"264 658 OFFCURVE",
"303 689 OFFCURVE",
"303 749 CURVE SMOOTH",
"303 803 OFFCURVE",
"261 844 OFFCURVE",
"207 844 CURVE SMOOTH",
"144 844 OFFCURVE",
"107 808 OFFCURVE",
"107 745 CURVE SMOOTH",
"107 723 OFFCURVE",
"109 710 OFFCURVE",
"115 691 CURVE",
"41 691 OFFCURVE",
"0 739 OFFCURVE",
"-1 841 CURVE",
"-68 841 LINE",
"-65 699 OFFCURVE",
"0 635 OFFCURVE",
"119 635 CURVE",
"116 600 OFFCURVE",
"108 578 OFFCURVE",
"61 578 CURVE SMOOTH",
"20 578 LINE",
"20 509 LINE",
"59 509 LINE SMOOTH",
"105 509 OFFCURVE",
"137 518 OFFCURVE",
"160 543 CURVE SMOOTH",
"177 562 OFFCURVE",
"186 583 OFFCURVE",
"186 639 CURVE"
);
},
{
closed = 1;
nodes = (
"172 716 OFFCURVE",
"170 727 OFFCURVE",
"170 743 CURVE SMOOTH",
"170 770 OFFCURVE",
"183 783 OFFCURVE",
"207 783 CURVE SMOOTH",
"229 783 OFFCURVE",
"240 771 OFFCURVE",
"240 746 CURVE SMOOTH",
"240 723 OFFCURVE",
"221 708 OFFCURVE",
"178 699 CURVE"
);
}
);
width = 332;
}
);
unicode = ABE7;
},
{
glyphname = uniABE8;
lastChange = "2017-12-08 18:54:54 +0000";
layers = (
{
layerId = UUID0;
paths = (
{
closed = 1;
nodes = (
"-337 -200 LINE",
"-338 -196 OFFCURVE",
"-340 -179 OFFCURVE",
"-340 -161 CURVE SMOOTH",
"-340 -129 OFFCURVE",
"-329 -114 OFFCURVE",
"-300 -114 CURVE SMOOTH",
"-279 -114 OFFCURVE",
"-257 -126 OFFCURVE",
"-257 -154 CURVE SMOOTH",
"-257 -200 LINE",
"-199 -200 LINE",
"-199 -154 LINE SMOOTH",
"-199 -129 OFFCURVE",
"-180 -114 OFFCURVE",
"-159 -114 CURVE SMOOTH",
"-129 -114 OFFCURVE",
"-118 -129 OFFCURVE",
"-118 -161 CURVE SMOOTH",
"-118 -173 OFFCURVE",
"-120 -191 OFFCURVE",
"-121 -200 CURVE",
"-66 -200 LINE",
"-65 -197 OFFCURVE",
"-62 -178 OFFCURVE",
"-62 -158 CURVE SMOOTH",
"-62 -113 OFFCURVE",
"-78 -59 OFFCURVE",
"-156 -59 CURVE SMOOTH",
"-186 -59 OFFCURVE",
"-213 -73 OFFCURVE",
"-228 -98 CURVE",
"-245 -69 OFFCURVE",
"-271 -59 OFFCURVE",
"-303 -59 CURVE SMOOTH",
"-380 -59 OFFCURVE",
"-396 -113 OFFCURVE",
"-396 -158 CURVE SMOOTH",
"-396 -172 OFFCURVE",
"-394 -190 OFFCURVE",
"-392 -200 CURVE"
);
}
);
width = 0;
}
);
unicode = ABE8;
},
{
glyphname = uniABE9;
lastChange = "2017-12-08 18:54:54 +0000";
layers = (
{
layerId = UUID0;
paths = (
{
closed = 1;
nodes = (
"-67 688 LINE",
"-67 768 LINE",
"21 771 OFFCURVE",
"77 815 OFFCURVE",
"77 884 CURVE SMOOTH",
"77 942 OFFCURVE",
"31 984 OFFCURVE",
"-30 984 CURVE SMOOTH",
"-98 984 OFFCURVE",
"-137 946 OFFCURVE",
"-137 877 CURVE SMOOTH",
"-137 829 LINE",
"-219 835 OFFCURVE",
"-236 900 OFFCURVE",
"-237 980 CURVE",
"-306 980 LINE",
"-306 879 OFFCURVE",
"-281 772 OFFCURVE",
"-137 768 CURVE",
"-137 688 LINE"
);
},
{
closed = 1;
nodes = (
"-67 874 LINE SMOOTH",
"-67 913 OFFCURVE",
"-51 922 OFFCURVE",
"-28 922 CURVE SMOOTH",
"-8 922 OFFCURVE",
"6 912 OFFCURVE",
"6 884 CURVE SMOOTH",
"6 852 OFFCURVE",
"-10 830 OFFCURVE",
"-67 829 CURVE"
);
}
);
width = 0;
}
);
unicode = ABE9;
},
{
glyphname = uniABEA;
lastChange = "2017-12-08 18:54:54 +0000";
layers = (
{
layerId = UUID0;
paths = (
{
closed = 1;
nodes = (
"-48 729 OFFCURVE",
"52 829 OFFCURVE",
"52 914 CURVE SMOOTH",
"52 975 OFFCURVE",
"-2 1009 OFFCURVE",
"-50 1009 CURVE SMOOTH",
"-106 1009 OFFCURVE",
"-151 968 OFFCURVE",
"-151 912 CURVE SMOOTH",
"-151 864 OFFCURVE",
"-105 817 OFFCURVE",
"-69 802 CURVE",
"-91 775 OFFCURVE",
"-111 758 OFFCURVE",
"-147 729 CURVE",
"-103 682 LINE"
);
},
{
closed = 1;
nodes = (
"-62 863 OFFCURVE",
"-87 880 OFFCURVE",
"-87 908 CURVE SMOOTH",
"-87 930 OFFCURVE",
"-72 950 OFFCURVE",
"-49 950 CURVE SMOOTH",
"-26 950 OFFCURVE",
"-10 929 OFFCURVE",
"-10 904 CURVE SMOOTH",
"-10 881 OFFCURVE",
"-23 858 OFFCURVE",
"-34 845 CURVE"
);
}
);
width = 0;
}
);
unicode = ABEA;
},
{
glyphname = uniABEB;
lastChange = "2017-12-08 18:54:54 +0000";
layers = (
{
layerId = UUID0;
paths = (
{
closed = 1;
nodes = (
"168 -30 LINE",
"168 688 LINE",
"86 688 LINE",
"86 -30 LINE"
);
},
{
closed = 1;
nodes = (
"366 -30 LINE",
"366 688 LINE",
"285 688 LINE",
"285 -30 LINE"
);
}
);
width = 452;
}
);
leftMetricsKey = uniAAF0;
rightMetricsKey = uniAAF0;
unicode = ABEB;
},
{
glyphname = uniABEC;
lastChange = "2017-12-08 18:54:54 +0000";
layers = (
{
layerId = UUID0;
paths = (
{
closed = 1;
nodes = (
"167 75 OFFCURVE",
"195 103 OFFCURVE",
"195 140 CURVE SMOOTH",
"195 175 OFFCURVE",
"167 203 OFFCURVE",
"131 203 CURVE SMOOTH",
"98 203 OFFCURVE",
"70 175 OFFCURVE",
"70 140 CURVE SMOOTH",
"70 103 OFFCURVE",
"98 75 OFFCURVE",
"131 75 CURVE SMOOTH"
);
}
);
width = 265;
}
);
unicode = ABEC;
},
{
glyphname = uniABED;
lastChange = "2017-12-08 18:54:54 +0000";
layers = (
{
layerId = UUID0;
paths = (
{
closed = 1;
nodes = (
"649 -180 LINE",
"649 -109 LINE",
"-576 -109 LINE",
"-576 -180 LINE"
);
}
);
width = 0;
}
);
unicode = ABED;
},
{
glyphname = uniABF0;
lastChange = "2017-12-08 18:54:54 +0000";
layers = (
{
layerId = UUID0;
paths = (
{
closed = 1;
nodes = (
"508 -12 OFFCURVE",
"596 130 OFFCURVE",
"596 322 CURVE SMOOTH",
"596 524 OFFCURVE",
"518 670 OFFCURVE",
"318 670 CURVE SMOOTH",
"134 670 OFFCURVE",
"50 524 OFFCURVE",
"50 322 CURVE SMOOTH",
"50 130 OFFCURVE",
"134 -12 OFFCURVE",
"318 -12 CURVE SMOOTH"
);
},
{
closed = 1;
nodes = (
"180 63 OFFCURVE",
"131 177 OFFCURVE",
"131 327 CURVE SMOOTH",
"131 475 OFFCURVE",
"180 595 OFFCURVE",
"318 595 CURVE SMOOTH",
"472 595 OFFCURVE",
"509 475 OFFCURVE",
"509 327 CURVE SMOOTH",
"509 177 OFFCURVE",
"471 63 OFFCURVE",
"318 63 CURVE SMOOTH"
);
}
);
width = 646;
}
);
unicode = ABF0;
},
{
glyphname = uniABF1;
lastChange = "2017-12-08 18:54:54 +0000";
layers = (
{
layerId = UUID0;
paths = (
{
closed = 1;
nodes = (
"376 -14 OFFCURVE",
"443 30 OFFCURVE",
"443 115 CURVE SMOOTH",
"443 202 OFFCURVE",
"384 248 OFFCURVE",
"293 294 CURVE SMOOTH",
"208 337 OFFCURVE",
"126 388 OFFCURVE",
"126 471 CURVE SMOOTH",
"126 557 OFFCURVE",
"203 594 OFFCURVE",
"300 594 CURVE SMOOTH",
"418 594 OFFCURVE",
"461 548 OFFCURVE",
"461 483 CURVE SMOOTH",
"461 444 OFFCURVE",
"445 412 OFFCURVE",
"398 412 CURVE SMOOTH",
"370 412 OFFCURVE",
"346 433 OFFCURVE",
"336 451 CURVE",
"270 408 LINE",
"289 377 OFFCURVE",
"333 336 OFFCURVE",
"400 336 CURVE SMOOTH",
"502 336 OFFCURVE",
"543 402 OFFCURVE",
"543 484 CURVE SMOOTH",
"543 583 OFFCURVE",
"451 665 OFFCURVE",
"299 665 CURVE SMOOTH",
"155 665 OFFCURVE",
"45 599 OFFCURVE",
"45 471 CURVE SMOOTH",
"45 353 OFFCURVE",
"142 298 OFFCURVE",
"236 247 CURVE SMOOTH",
"330 196 OFFCURVE",
"364 161 OFFCURVE",
"364 119 CURVE SMOOTH",
"364 73 OFFCURVE",
"329 56 OFFCURVE",
"297 56 CURVE SMOOTH",
"267 56 OFFCURVE",
"228 77 OFFCURVE",
"203 114 CURVE",
"138 74 LINE",
"183 8 OFFCURVE",
"246 -14 OFFCURVE",
"300 -14 CURVE SMOOTH"
);
}
);
width = 588;
}
);
unicode = ABF1;
},
{
glyphname = uniABF2;
lastChange = "2018-03-02 15:35:03 +0000";
layers = (
{
layerId = UUID0;
paths = (
{
closed = 1;
nodes = (
"383 -9 OFFCURVE",
"449 37 OFFCURVE",
"449 116 CURVE SMOOTH",
"449 148 OFFCURVE",
"434 179 OFFCURVE",
"410 204 CURVE",
"504 202 OFFCURVE",
"540 144 OFFCURVE",
"540 80 CURVE SMOOTH",
"540 61 OFFCURVE",
"537 41 OFFCURVE",
"531 22 CURVE",
"611 6 LINE",
"617 29 OFFCURVE",
"620 53 OFFCURVE",
"620 75 CURVE SMOOTH",
"620 180 OFFCURVE",
"554 265 OFFCURVE",
"388 265 CURVE SMOOTH",
"375 265 OFFCURVE",
"371 265 OFFCURVE",
"346 263 CURVE",
"332 271 OFFCURVE",
"312 281 OFFCURVE",
"297 288 CURVE SMOOTH",
"220 326 OFFCURVE",
"127 382 OFFCURVE",
"127 468 CURVE SMOOTH",
"127 554 OFFCURVE",
"196 594 OFFCURVE",
"303 594 CURVE SMOOTH",
"421 594 OFFCURVE",
"466 548 OFFCURVE",
"466 483 CURVE SMOOTH",
"466 444 OFFCURVE",
"450 412 OFFCURVE",
"403 412 CURVE SMOOTH",
"375 412 OFFCURVE",
"351 433 OFFCURVE",
"341 451 CURVE",
"275 408 LINE",
"293 377 OFFCURVE",
"338 336 OFFCURVE",
"405 336 CURVE SMOOTH",
"507 336 OFFCURVE",
"547 402 OFFCURVE",
"547 484 CURVE SMOOTH",
"547 583 OFFCURVE",
"454 665 OFFCURVE",
"302 665 CURVE SMOOTH",
"148 665 OFFCURVE",
"45 596 OFFCURVE",
"45 468 CURVE SMOOTH",
"45 365 OFFCURVE",
"119 306 OFFCURVE",
"255 232 CURVE",
"207 204 OFFCURVE",
"172 163 OFFCURVE",
"172 110 CURVE SMOOTH",
"172 15 OFFCURVE",
"256 -9 OFFCURVE",
"310 -9 CURVE SMOOTH"
);
},
{
closed = 1;
nodes = (
"271 62 OFFCURVE",
"252 84 OFFCURVE",
"252 111 CURVE SMOOTH",
"252 150 OFFCURVE",
"283 180 OFFCURVE",
"324 191 CURVE",
"354 172 OFFCURVE",
"366 146 OFFCURVE",
"366 114 CURVE SMOOTH",
"366 77 OFFCURVE",
"339 62 OFFCURVE",
"310 62 CURVE SMOOTH"
);
}
);
width = 645;
}
);
leftMetricsKey = uniABF1;
unicode = ABF2;
},
{
glyphname = uniABF3;
lastChange = "2017-12-08 18:54:54 +0000";
layers = (
{
layerId = UUID0;
paths = (
{
closed = 1;
nodes = (
"384 -9 OFFCURVE",
"441 33 OFFCURVE",
"441 112 CURVE SMOOTH",
"441 144 OFFCURVE",
"427 177 OFFCURVE",
"405 201 CURVE",
"427 208 OFFCURVE",
"443 209 OFFCURVE",
"471 209 CURVE SMOOTH",
"487 209 OFFCURVE",
"512 205 OFFCURVE",
"533 198 CURVE",
"507 170 OFFCURVE",
"491 139 OFFCURVE",
"491 100 CURVE SMOOTH",
"491 42 OFFCURVE",
"534 3 OFFCURVE",
"593 3 CURVE SMOOTH",
"663 3 OFFCURVE",
"700 45 OFFCURVE",
"700 102 CURVE SMOOTH",
"700 141 OFFCURVE",
"687 170 OFFCURVE",
"653 204 CURVE",
"666 211 OFFCURVE",
"677 215 OFFCURVE",
"693 215 CURVE SMOOTH",
"724 215 OFFCURVE",
"747 207 OFFCURVE",
"778 169 CURVE",
"832 213 LINE",
"794 261 OFFCURVE",
"752 278 OFFCURVE",
"696 278 CURVE SMOOTH",
"658 278 OFFCURVE",
"627 265 OFFCURVE",
"592 243 CURVE",
"554 261 OFFCURVE",
"506 270 OFFCURVE",
"458 270 CURVE SMOOTH",
"420 270 OFFCURVE",
"381 266 OFFCURVE",
"344 260 CURVE",
"301 283 LINE SMOOTH",
"215 329 OFFCURVE",
"128 374 OFFCURVE",
"128 468 CURVE SMOOTH",
"128 554 OFFCURVE",
"196 594 OFFCURVE",
"302 594 CURVE SMOOTH",
"421 594 OFFCURVE",
"466 548 OFFCURVE",
"466 483 CURVE SMOOTH",
"466 444 OFFCURVE",
"450 412 OFFCURVE",
"404 412 CURVE SMOOTH",
"376 412 OFFCURVE",
"351 433 OFFCURVE",
"340 451 CURVE",
"276 408 LINE",
"294 377 OFFCURVE",
"337 336 OFFCURVE",
"406 336 CURVE SMOOTH",
"508 336 OFFCURVE",
"547 402 OFFCURVE",
"547 484 CURVE SMOOTH",
"547 583 OFFCURVE",
"454 665 OFFCURVE",
"301 665 CURVE SMOOTH",
"149 665 OFFCURVE",
"45 596 OFFCURVE",
"45 468 CURVE SMOOTH",
"45 344 OFFCURVE",
"144 288 OFFCURVE",
"255 228 CURVE",
"205 200 OFFCURVE",
"172 164 OFFCURVE",
"172 110 CURVE SMOOTH",
"172 15 OFFCURVE",
"257 -9 OFFCURVE",
"309 -9 CURVE SMOOTH"
);
},
{
closed = 1;
nodes = (
"272 62 OFFCURVE",
"253 84 OFFCURVE",
"253 111 CURVE SMOOTH",
"253 151 OFFCURVE",
"284 180 OFFCURVE",
"323 191 CURVE",
"347 173 OFFCURVE",
"363 146 OFFCURVE",
"363 114 CURVE SMOOTH",
"363 77 OFFCURVE",
"338 62 OFFCURVE",
"309 62 CURVE SMOOTH"
);
},
{
closed = 1;
nodes = (
"571 63 OFFCURVE",
"559 81 OFFCURVE",
"559 108 CURVE SMOOTH",
"559 137 OFFCURVE",
"571 159 OFFCURVE",
"596 178 CURVE",
"619 159 OFFCURVE",
"631 137 OFFCURVE",
"631 109 CURVE SMOOTH",
"631 84 OFFCURVE",
"622 63 OFFCURVE",
"593 63 CURVE SMOOTH"
);
}
);
width = 842;
}
);
leftMetricsKey = uniABF1;
unicode = ABF3;
},
{
glyphname = uniABF4;
lastChange = "2017-12-08 18:54:54 +0000";
layers = (
{
layerId = UUID0;
paths = (
{
closed = 1;
nodes = (
"447 -12 OFFCURVE",
"538 72 OFFCURVE",
"538 173 CURVE SMOOTH",
"538 255 OFFCURVE",
"496 319 OFFCURVE",
"402 319 CURVE SMOOTH",
"336 319 OFFCURVE",
"293 285 OFFCURVE",
"268 248 CURVE",
"333 209 LINE",
"350 237 OFFCURVE",
"370 249 OFFCURVE",
"400 249 CURVE SMOOTH",
"447 249 OFFCURVE",
"458 211 OFFCURVE",
"458 174 CURVE SMOOTH",
"458 108 OFFCURVE",
"404 60 OFFCURVE",
"296 60 CURVE SMOOTH",
"189 60 OFFCURVE",
"124 102 OFFCURVE",
"124 188 CURVE SMOOTH",
"124 270 OFFCURVE",
"212 322 OFFCURVE",
"295 362 CURVE SMOOTH",
"382 404 OFFCURVE",
"461 442 OFFCURVE",
"461 530 CURVE SMOOTH",
"461 618 OFFCURVE",
"391 665 OFFCURVE",
"315 665 CURVE SMOOTH",
"255 665 OFFCURVE",
"155 638 OFFCURVE",
"136 518 CURVE",
"213 501 LINE",
"221 572 OFFCURVE",
"272 594 OFFCURVE",
"315 594 CURVE SMOOTH",
"347 594 OFFCURVE",
"382 576 OFFCURVE",
"382 531 CURVE SMOOTH",
"382 491 OFFCURVE",
"344 463 OFFCURVE",
"269 427 CURVE SMOOTH",
"139 365 OFFCURVE",
"45 308 OFFCURVE",
"45 188 CURVE SMOOTH",
"45 60 OFFCURVE",
"141 -12 OFFCURVE",
"295 -12 CURVE SMOOTH"
);
}
);
width = 583;
}
);
leftMetricsKey = uniABF1;
rightMetricsKey = uniABF1;
unicode = ABF4;
},
{
glyphname = uniABF5;
lastChange = "2017-12-08 18:54:54 +0000";
layers = (
{
layerId = UUID0;
paths = (
{
closed = 1;
nodes = (
"323 0 LINE",
"323 226 LINE",
"451 233 OFFCURVE",
"473 302 OFFCURVE",
"473 349 CURVE SMOOTH",
"473 404 OFFCURVE",
"443 460 OFFCURVE",
"362 460 CURVE SMOOTH",
"284 460 OFFCURVE",
"240 424 OFFCURVE",
"240 327 CURVE SMOOTH",
"240 302 LINE",
"149 320 OFFCURVE",
"131 390 OFFCURVE",
"131 440 CURVE SMOOTH",
"131 525 OFFCURVE",
"179 587 OFFCURVE",
"330 587 CURVE SMOOTH",
"458 587 OFFCURVE",
"518 543 OFFCURVE",
"518 488 CURVE SMOOTH",
"518 465 OFFCURVE",
"507 445 OFFCURVE",
"493 429 CURVE",
"557 369 LINE",
"584 400 OFFCURVE",
"602 434 OFFCURVE",
"602 477 CURVE SMOOTH",
"602 585 OFFCURVE",
"493 662 OFFCURVE",
"332 662 CURVE SMOOTH",
"123 662 OFFCURVE",
"45 565 OFFCURVE",
"45 439 CURVE SMOOTH",
"45 344 OFFCURVE",
"103 251 OFFCURVE",
"240 230 CURVE",
"240 0 LINE"
);
},
{
closed = 1;
nodes = (
"322 361 OFFCURVE",
"322 391 OFFCURVE",
"363 391 CURVE SMOOTH",
"388 391 OFFCURVE",
"396 369 OFFCURVE",
"396 351 CURVE SMOOTH",
"396 329 OFFCURVE",
"392 301 OFFCURVE",
"322 301 CURVE"
);
}
);
width = 647;
}
);
leftMetricsKey = uniABF1;
rightMetricsKey = uniABF1;
unicode = ABF5;
},
{
glyphname = uniABF6;
lastChange = "2017-12-08 18:54:54 +0000";
layers = (
{
layerId = UUID0;
paths = (
{
closed = 1;
nodes = (
"323 0 LINE",
"621 229 LINE",
"576 286 LINE",
"321 87 LINE",
"321 226 LINE",
"449 233 OFFCURVE",
"473 302 OFFCURVE",
"473 349 CURVE SMOOTH",
"473 404 OFFCURVE",
"443 460 OFFCURVE",
"362 460 CURVE SMOOTH",
"284 460 OFFCURVE",
"241 424 OFFCURVE",
"241 327 CURVE SMOOTH",
"241 302 LINE",
"147 321 OFFCURVE",
"131 401 OFFCURVE",
"131 444 CURVE SMOOTH",
"131 526 OFFCURVE",
"181 587 OFFCURVE",
"330 587 CURVE SMOOTH",
"458 587 OFFCURVE",
"518 543 OFFCURVE",
"518 488 CURVE SMOOTH",
"518 464 OFFCURVE",
"509 445 OFFCURVE",
"494 429 CURVE",
"557 369 LINE",
"584 400 OFFCURVE",
"602 434 OFFCURVE",
"602 477 CURVE SMOOTH",
"602 585 OFFCURVE",
"493 662 OFFCURVE",
"332 662 CURVE SMOOTH",
"125 662 OFFCURVE",
"45 567 OFFCURVE",
"45 444 CURVE SMOOTH",
"45 347 OFFCURVE",
"101 251 OFFCURVE",
"241 230 CURVE",
"241 0 LINE"
);
},
{
closed = 1;
nodes = (
"322 361 OFFCURVE",
"322 391 OFFCURVE",
"363 391 CURVE SMOOTH",
"388 391 OFFCURVE",
"396 369 OFFCURVE",
"396 351 CURVE SMOOTH",
"396 329 OFFCURVE",
"392 301 OFFCURVE",
"322 301 CURVE"
);
}
);
width = 661;
}
);
leftMetricsKey = uniABF1;
unicode = ABF6;
},
{
glyphname = uniABF7;
lastChange = "2018-03-02 15:35:21 +0000";
layers = (
{
layerId = UUID0;
paths = (
{
closed = 1;
nodes = (
"542 -9 OFFCURVE",
"637 25 OFFCURVE",
"637 141 CURVE SMOOTH",
"637 216 OFFCURVE",
"617 303 OFFCURVE",
"596 383 CURVE",
"683 429 OFFCURVE",
"738 474 OFFCURVE",
"738 552 CURVE SMOOTH",
"738 628 OFFCURVE",
"681 679 OFFCURVE",
"602 679 CURVE SMOOTH",
"532 679 OFFCURVE",
"474 634 OFFCURVE",
"474 561 CURVE SMOOTH",
"474 520 OFFCURVE",
"488 473 OFFCURVE",
"504 421 CURVE",
"456 400 OFFCURVE",
"374 368 OFFCURVE",
"354 360 CURVE",
"337 506 OFFCURVE",
"289 668 OFFCURVE",
"171 668 CURVE SMOOTH",
"82 668 OFFCURVE",
"30 605 OFFCURVE",
"30 550 CURVE SMOOTH",
"30 526 OFFCURVE",
"37 500 OFFCURVE",
"41 488 CURVE",
"120 516 LINE",
"117 525 OFFCURVE",
"113 539 OFFCURVE",
"113 550 CURVE SMOOTH",
"113 570 OFFCURVE",
"126 597 OFFCURVE",
"167 597 CURVE SMOOTH",
"230 597 OFFCURVE",
"260 451 OFFCURVE",
"272 329 CURVE",
"155 281 OFFCURVE",
"60 223 OFFCURVE",
"60 127 CURVE SMOOTH",
"60 49 OFFCURVE",
"123 -7 OFFCURVE",
"200 -7 CURVE SMOOTH",
"316 -7 OFFCURVE",
"362 88 OFFCURVE",
"362 216 CURVE SMOOTH",
"362 235 OFFCURVE",
"361 259 OFFCURVE",
"360 282 CURVE",
"435 309 OFFCURVE",
"476 327 OFFCURVE",
"527 348 CURVE",
"549 276 OFFCURVE",
"559 208 OFFCURVE",
"559 160 CURVE SMOOTH",
"559 98 OFFCURVE",
"526 70 OFFCURVE",
"451 62 CURVE",
"471 -12 LINE"
);
},
{
closed = 1;
nodes = (
"163 64 OFFCURVE",
"142 91 OFFCURVE",
"142 125 CURVE SMOOTH",
"142 177 OFFCURVE",
"203 214 OFFCURVE",
"278 249 CURVE",
"279 237 OFFCURVE",
"279 225 OFFCURVE",
"279 216 CURVE SMOOTH",
"279 131 OFFCURVE",
"257 64 OFFCURVE",
"200 64 CURVE SMOOTH"
);
},
{
closed = 1;
nodes = (
"560 491 OFFCURVE",
"550 525 OFFCURVE",
"550 558 CURVE SMOOTH",
"550 595 OFFCURVE",
"576 614 OFFCURVE",
"606 614 CURVE SMOOTH",
"637 614 OFFCURVE",
"658 591 OFFCURVE",
"658 559 CURVE SMOOTH",
"658 516 OFFCURVE",
"621 478 OFFCURVE",
"573 453 CURVE"
);
}
);
width = 768;
}
);
unicode = ABF7;
},
{
glyphname = uniABF8;
lastChange = "2017-12-08 18:54:54 +0000";
layers = (
{
layerId = UUID0;
paths = (
{
closed = 1;
nodes = (
"260 -6 OFFCURVE",
"323 24 OFFCURVE",
"323 103 CURVE SMOOTH",
"323 226 LINE",
"451 233 OFFCURVE",
"473 302 OFFCURVE",
"473 349 CURVE SMOOTH",
"473 404 OFFCURVE",
"443 460 OFFCURVE",
"362 460 CURVE SMOOTH",
"284 460 OFFCURVE",
"240 424 OFFCURVE",
"240 327 CURVE SMOOTH",
"240 302 LINE",
"147 321 OFFCURVE",
"130 401 OFFCURVE",
"130 444 CURVE SMOOTH",
"130 526 OFFCURVE",
"181 587 OFFCURVE",
"330 587 CURVE SMOOTH",
"458 587 OFFCURVE",
"518 543 OFFCURVE",
"518 488 CURVE SMOOTH",
"518 465 OFFCURVE",
"507 445 OFFCURVE",
"493 429 CURVE",
"557 369 LINE",
"584 400 OFFCURVE",
"602 434 OFFCURVE",
"602 477 CURVE SMOOTH",
"602 585 OFFCURVE",
"493 662 OFFCURVE",
"332 662 CURVE SMOOTH",
"125 662 OFFCURVE",
"45 567 OFFCURVE",
"45 444 CURVE SMOOTH",
"45 347 OFFCURVE",
"101 251 OFFCURVE",
"240 230 CURVE",
"240 111 LINE SMOOTH",
"240 78 OFFCURVE",
"223 66 OFFCURVE",
"201 66 CURVE SMOOTH",
"171 66 OFFCURVE",
"158 86 OFFCURVE",
"132 127 CURVE",
"71 82 LINE",
"117 9 OFFCURVE",
"159 -6 OFFCURVE",
"208 -6 CURVE SMOOTH"
);
},
{
closed = 1;
nodes = (
"322 361 OFFCURVE",
"322 391 OFFCURVE",
"363 391 CURVE SMOOTH",
"388 391 OFFCURVE",
"396 369 OFFCURVE",
"396 351 CURVE SMOOTH",
"396 329 OFFCURVE",
"392 301 OFFCURVE",
"322 301 CURVE"
);
}
);
width = 647;
}
);
leftMetricsKey = uniABF1;
rightMetricsKey = uniABF1;
unicode = ABF8;
},
{
glyphname = uniABF9;
lastChange = "2017-12-08 18:54:54 +0000";
layers = (
{
layerId = UUID0;
paths = (
{
closed = 1;
nodes = (
"269 -6 OFFCURVE",
"320 34 OFFCURVE",
"320 107 CURVE SMOOTH",
"320 151 LINE",
"508 151 LINE",
"508 211 LINE",
"320 211 LINE",
"320 255 LINE",
"448 262 OFFCURVE",
"473 316 OFFCURVE",
"473 364 CURVE SMOOTH",
"473 419 OFFCURVE",
"440 475 OFFCURVE",
"362 475 CURVE SMOOTH",
"291 475 OFFCURVE",
"243 438 OFFCURVE",
"243 342 CURVE SMOOTH",
"243 316 LINE",
"145 337 OFFCURVE",
"130 404 OFFCURVE",
"130 452 CURVE SMOOTH",
"130 527 OFFCURVE",
"186 591 OFFCURVE",
"330 591 CURVE SMOOTH",
"458 591 OFFCURVE",
"518 543 OFFCURVE",
"518 488 CURVE SMOOTH",
"518 465 OFFCURVE",
"512 447 OFFCURVE",
"496 424 CURVE",
"565 372 LINE",
"592 404 OFFCURVE",
"602 443 OFFCURVE",
"602 477 CURVE SMOOTH",
"602 585 OFFCURVE",
"493 662 OFFCURVE",
"332 662 CURVE SMOOTH",
"130 662 OFFCURVE",
"45 571 OFFCURVE",
"45 452 CURVE SMOOTH",
"45 351 OFFCURVE",
"102 277 OFFCURVE",
"245 255 CURVE",
"245 211 LINE",
"226 211 LINE SMOOTH",
"159 211 OFFCURVE",
"86 193 OFFCURVE",
"86 101 CURVE SMOOTH",
"86 28 OFFCURVE",
"144 -6 OFFCURVE",
"200 -6 CURVE SMOOTH"
);
},
{
closed = 1;
nodes = (
"176 58 OFFCURVE",
"164 76 OFFCURVE",
"164 106 CURVE SMOOTH",
"164 148 OFFCURVE",
"201 152 OFFCURVE",
"245 152 CURVE",
"245 109 LINE SMOOTH",
"245 72 OFFCURVE",
"229 58 OFFCURVE",
"202 58 CURVE SMOOTH"
);
},
{
closed = 1;
nodes = (
"317 377 OFFCURVE",
"322 406 OFFCURVE",
"363 406 CURVE SMOOTH",
"388 406 OFFCURVE",
"396 385 OFFCURVE",
"396 366 CURVE SMOOTH",
"396 344 OFFCURVE",
"387 315 OFFCURVE",
"317 315 CURVE"
);
}
);
width = 647;
}
);
leftMetricsKey = uniABF1;
rightMetricsKey = uniABF1;
unicode = ABF9;
},
{
glyphname = uniABED.alt1;
lastChange = "2017-12-08 18:54:54 +0000";
layers = (
{
layerId = UUID0;
paths = (
{
closed = 1;
nodes = (
"854 -180 LINE",
"854 -109 LINE",
"-708 -109 LINE",
"-708 -180 LINE"
);
}
);
width = 0;
}
);
note = uniABED.alt1;
},
{
glyphname = uniABED.alt2;
lastChange = "2017-12-08 18:54:54 +0000";
layers = (
{
layerId = UUID0;
paths = (
{
closed = 1;
nodes = (
"1147 -180 LINE",
"1147 -109 LINE",
"-708 -109 LINE",
"-708 -180 LINE"
);
}
);
width = 0;
}
);
note = uniABED.alt2;
},
{
glyphname = uniABED.alt3;
lastChange = "2017-12-08 18:54:54 +0000";
layers = (
{
layerId = UUID0;
paths = (
{
closed = 1;
nodes = (
"708 -180 LINE",
"708 -109 LINE",
"-854 -109 LINE",
"-854 -180 LINE"
);
}
);
width = 0;
}
);
note = uniABED.alt3;
},
{
glyphname = uniABED.alt4;
lastChange = "2017-12-08 18:54:54 +0000";
layers = (
{
layerId = UUID0;
paths = (
{
closed = 1;
nodes = (
"854 -180 LINE",
"854 -109 LINE",
"-854 -109 LINE",
"-854 -180 LINE"
);
}
);
width = 0;
}
);
note = uniABED.alt4;
},
{
glyphname = uniABED.alt5;
lastChange = "2017-12-08 18:54:54 +0000";
layers = (
{
layerId = UUID0;
paths = (
{
closed = 1;
nodes = (
"1147 -180 LINE",
"1147 -109 LINE",
"-854 -109 LINE",
"-854 -180 LINE"
);
}
);
width = 0;
}
);
note = uniABED.alt5;
},
{
glyphname = uniABED.alt6;
lastChange = "2017-12-08 18:54:54 +0000";
layers = (
{
layerId = UUID0;
paths = (
{
closed = 1;
nodes = (
"708 -180 LINE",
"708 -109 LINE",
"-1147 -109 LINE",
"-1147 -180 LINE"
);
}
);
width = 0;
}
);
note = uniABED.alt6;
},
{
glyphname = uniABED.alt7;
lastChange = "2017-12-08 18:54:54 +0000";
layers = (
{
layerId = UUID0;
paths = (
{
closed = 1;
nodes = (
"854 -180 LINE",
"854 -109 LINE",
"-1147 -109 LINE",
"-1147 -180 LINE"
);
}
);
width = 0;
}
);
note = uniABED.alt7;
},
{
glyphname = uniABED.alt8;
lastChange = "2017-12-08 18:54:54 +0000";
layers = (
{
layerId = UUID0;
paths = (
{
closed = 1;
nodes = (
"1147 -180 LINE",
"1147 -109 LINE",
"-1147 -109 LINE",
"-1147 -180 LINE"
);
}
);
width = 0;
}
);
note = uniABED.alt8;
},
{
glyphname = uni25CC;
lastChange = "2017-12-08 18:54:54 +0000";
layers = (
{
layerId = UUID0;
paths = (
{
closed = 1;
nodes = (
"469 423 OFFCURVE",
"481 435 OFFCURVE",
"481 449 CURVE SMOOTH",
"481 463 OFFCURVE",
"469 475 OFFCURVE",
"455 475 CURVE SMOOTH",
"441 475 OFFCURVE",
"429 463 OFFCURVE",
"429 449 CURVE SMOOTH",
"429 435 OFFCURVE",
"441 423 OFFCURVE",
"455 423 CURVE SMOOTH"
);
},
{
closed = 1;
nodes = (
"153 107 OFFCURVE",
"165 119 OFFCURVE",
"165 133 CURVE SMOOTH",
"165 147 OFFCURVE",
"153 159 OFFCURVE",
"139 159 CURVE SMOOTH",
"125 159 OFFCURVE",
"113 147 OFFCURVE",
"113 133 CURVE SMOOTH",
"113 119 OFFCURVE",
"125 107 OFFCURVE",
"139 107 CURVE SMOOTH"
);
},
{
closed = 1;
nodes = (
"227 60 OFFCURVE",
"239 72 OFFCURVE",
"239 86 CURVE SMOOTH",
"239 100 OFFCURVE",
"227 112 OFFCURVE",
"213 112 CURVE SMOOTH",
"199 112 OFFCURVE",
"187 100 OFFCURVE",
"187 86 CURVE SMOOTH",
"187 72 OFFCURVE",
"199 60 OFFCURVE",
"213 60 CURVE SMOOTH"
);
},
{
closed = 1;
nodes = (
"106 181 OFFCURVE",
"118 193 OFFCURVE",
"118 207 CURVE SMOOTH",
"118 221 OFFCURVE",
"106 233 OFFCURVE",
"92 233 CURVE SMOOTH",
"78 233 OFFCURVE",
"66 221 OFFCURVE",
"66 207 CURVE SMOOTH",
"66 193 OFFCURVE",
"78 181 OFFCURVE",
"92 181 CURVE SMOOTH"
);
},
{
closed = 1;
nodes = (
"311 42 OFFCURVE",
"323 54 OFFCURVE",
"323 68 CURVE SMOOTH",
"323 82 OFFCURVE",
"311 94 OFFCURVE",
"297 94 CURVE SMOOTH",
"283 94 OFFCURVE",
"271 82 OFFCURVE",
"271 68 CURVE SMOOTH",
"271 54 OFFCURVE",
"283 42 OFFCURVE",
"297 42 CURVE SMOOTH"
);
},
{
closed = 1;
nodes = (
"88 265 OFFCURVE",
"100 277 OFFCURVE",
"100 291 CURVE SMOOTH",
"100 305 OFFCURVE",
"88 317 OFFCURVE",
"74 317 CURVE SMOOTH",
"60 317 OFFCURVE",
"48 305 OFFCURVE",
"48 291 CURVE SMOOTH",
"48 277 OFFCURVE",
"60 265 OFFCURVE",
"74 265 CURVE SMOOTH"
);
},
{
closed = 1;
nodes = (
"395 60 OFFCURVE",
"407 72 OFFCURVE",
"407 86 CURVE SMOOTH",
"407 100 OFFCURVE",
"395 112 OFFCURVE",
"381 112 CURVE SMOOTH",
"367 112 OFFCURVE",
"355 100 OFFCURVE",
"355 86 CURVE SMOOTH",
"355 72 OFFCURVE",
"367 60 OFFCURVE",
"381 60 CURVE SMOOTH"
);
},
{
closed = 1;
nodes = (
"106 349 OFFCURVE",
"118 361 OFFCURVE",
"118 375 CURVE SMOOTH",
"118 389 OFFCURVE",
"106 401 OFFCURVE",
"92 401 CURVE SMOOTH",
"78 401 OFFCURVE",
"66 389 OFFCURVE",
"66 375 CURVE SMOOTH",
"66 361 OFFCURVE",
"78 349 OFFCURVE",
"92 349 CURVE SMOOTH"
);
},
{
closed = 1;
nodes = (
"153 423 OFFCURVE",
"165 435 OFFCURVE",
"165 449 CURVE SMOOTH",
"165 463 OFFCURVE",
"153 475 OFFCURVE",
"139 475 CURVE SMOOTH",
"125 475 OFFCURVE",
"113 463 OFFCURVE",
"113 449 CURVE SMOOTH",
"113 435 OFFCURVE",
"125 423 OFFCURVE",
"139 423 CURVE SMOOTH"
);
},
{
closed = 1;
nodes = (
"469 107 OFFCURVE",
"481 119 OFFCURVE",
"481 133 CURVE SMOOTH",
"481 147 OFFCURVE",
"469 159 OFFCURVE",
"455 159 CURVE SMOOTH",
"441 159 OFFCURVE",
"429 147 OFFCURVE",
"429 133 CURVE SMOOTH",
"429 119 OFFCURVE",
"441 107 OFFCURVE",
"455 107 CURVE SMOOTH"
);
},
{
closed = 1;
nodes = (
"227 470 OFFCURVE",
"239 482 OFFCURVE",
"239 496 CURVE SMOOTH",
"239 510 OFFCURVE",
"227 522 OFFCURVE",
"213 522 CURVE SMOOTH",
"199 522 OFFCURVE",
"187 510 OFFCURVE",
"187 496 CURVE SMOOTH",
"187 482 OFFCURVE",
"199 470 OFFCURVE",
"213 470 CURVE SMOOTH"
);
},
{
closed = 1;
nodes = (
"516 181 OFFCURVE",
"528 193 OFFCURVE",
"528 207 CURVE SMOOTH",
"528 221 OFFCURVE",
"516 233 OFFCURVE",
"502 233 CURVE SMOOTH",
"488 233 OFFCURVE",
"476 221 OFFCURVE",
"476 207 CURVE SMOOTH",
"476 193 OFFCURVE",
"488 181 OFFCURVE",
"502 181 CURVE SMOOTH"
);
},
{
closed = 1;
nodes = (
"311 488 OFFCURVE",
"323 500 OFFCURVE",
"323 514 CURVE SMOOTH",
"323 528 OFFCURVE",
"311 540 OFFCURVE",
"297 540 CURVE SMOOTH",
"283 540 OFFCURVE",
"271 528 OFFCURVE",
"271 514 CURVE SMOOTH",
"271 500 OFFCURVE",
"283 488 OFFCURVE",
"297 488 CURVE SMOOTH"
);
},
{
closed = 1;
nodes = (
"534 265 OFFCURVE",
"546 277 OFFCURVE",
"546 291 CURVE SMOOTH",
"546 305 OFFCURVE",
"534 317 OFFCURVE",
"520 317 CURVE SMOOTH",
"506 317 OFFCURVE",
"494 305 OFFCURVE",
"494 291 CURVE SMOOTH",
"494 277 OFFCURVE",
"506 265 OFFCURVE",
"520 265 CURVE SMOOTH"
);
},
{
closed = 1;
nodes = (
"395 470 OFFCURVE",
"407 482 OFFCURVE",
"407 496 CURVE SMOOTH",
"407 510 OFFCURVE",
"395 522 OFFCURVE",
"381 522 CURVE SMOOTH",
"367 522 OFFCURVE",
"355 510 OFFCURVE",
"355 496 CURVE SMOOTH",
"355 482 OFFCURVE",
"367 470 OFFCURVE",
"381 470 CURVE SMOOTH"
);
},
{
closed = 1;
nodes = (
"516 349 OFFCURVE",
"528 361 OFFCURVE",
"528 375 CURVE SMOOTH",
"528 389 OFFCURVE",
"516 401 OFFCURVE",
"502 401 CURVE SMOOTH",
"488 401 OFFCURVE",
"476 389 OFFCURVE",
"476 375 CURVE SMOOTH",
"476 361 OFFCURVE",
"488 349 OFFCURVE",
"502 349 CURVE SMOOTH"
);
}
